<svg width="96" height="100" viewBox="0 0 96 100" fill="none" xmlns="http://www.w3.org/2000/svg">
<mask id="path-1-inside-1_74_157" fill="white">
<path d="M88.4928 83.509H7.50716C3.64329 83.509 0.5 80.4107 0.5 76.6021V70.5587C0.5 70.0084 0.952564 69.5625 1.51064 69.5625H94.4894C95.0476 69.5625 95.5 70.0084 95.5 70.5587V76.6021C95.5 80.4107 92.3565 83.509 88.4928 83.509ZM2.52128 71.5549V76.6021C2.52128 79.3121 4.75782 81.5167 7.50716 81.5167H88.493C91.2424 81.5167 93.4789 79.3121 93.4789 76.6021V71.5549H2.52128Z"/>
</mask>
<path d="M88.4928 83.509H7.50716C3.64329 83.509 0.5 80.4107 0.5 76.6021V70.5587C0.5 70.0084 0.952564 69.5625 1.51064 69.5625H94.4894C95.0476 69.5625 95.5 70.0084 95.5 70.5587V76.6021C95.5 80.4107 92.3565 83.509 88.4928 83.509ZM2.52128 71.5549V76.6021C2.52128 79.3121 4.75782 81.5167 7.50716 81.5167H88.493C91.2424 81.5167 93.4789 79.3121 93.4789 76.6021V71.5549H2.52128Z" fill="#6D95FC"/>
<path d="M2.52128 71.5549V67.5549H-1.47872V71.5549H2.52128ZM93.4789 71.5549H97.4789V67.5549H93.4789V71.5549ZM88.4928 79.509H7.50716V87.509H88.4928V79.509ZM7.50716 79.509C5.7979 79.509 4.5 78.1474 4.5 76.6021H-3.5C-3.5 82.674 1.48867 87.509 7.50716 87.509V79.509ZM4.5 76.6021V70.5587H-3.5V76.6021H4.5ZM4.5 70.5587C4.5 72.2722 3.10665 73.5625 1.51064 73.5625V65.5625C-1.20152 65.5625 -3.5 67.7446 -3.5 70.5587H4.5ZM1.51064 73.5625H94.4894V65.5625H1.51064V73.5625ZM94.4894 73.5625C92.893 73.5625 91.5 72.2717 91.5 70.5587H99.5C99.5 67.7451 97.2023 65.5625 94.4894 65.5625V73.5625ZM91.5 70.5587V76.6021H99.5V70.5587H91.5ZM91.5 76.6021C91.5 78.1474 90.202 79.509 88.4928 79.509V87.509C94.5111 87.509 99.5 82.6741 99.5 76.6021H91.5ZM-1.47872 71.5549V76.6021H6.52128V71.5549H-1.47872ZM-1.47872 76.6021C-1.47872 81.5754 2.6032 85.5167 7.50716 85.5167V77.5167C6.91244 77.5167 6.52128 77.0489 6.52128 76.6021H-1.47872ZM7.50716 85.5167H88.493V77.5167H7.50716V85.5167ZM88.493 85.5167C93.397 85.5167 97.4789 81.5754 97.4789 76.6021H89.4789C89.4789 77.0489 89.0878 77.5167 88.493 77.5167V85.5167ZM97.4789 76.6021V71.5549H89.4789V76.6021H97.4789ZM93.4789 67.5549H2.52128V75.5549H93.4789V67.5549Z" fill="#FBFBFB" mask="url(#path-1-inside-1_74_157)"/>
<mask id="path-3-inside-2_74_157" fill="white">
<path d="M94.4894 71.5546H1.51064C0.952564 71.5546 0.5 71.1087 0.5 70.5584V26.0291C0.5 21.4699 4.26301 17.7607 8.8883 17.7607H44.0589C44.617 17.7607 45.0696 18.2068 45.0696 18.7569C45.0696 19.307 44.617 19.7531 44.0589 19.7531H8.8883C5.37754 19.7531 2.52128 22.5685 2.52128 26.0291V69.5622H93.4787V26.0291C93.4787 22.5685 90.6225 19.7531 87.1117 19.7531H64.0685C63.5103 19.7531 63.0579 19.307 63.0579 18.7569C63.0579 18.2068 63.5103 17.7607 64.0685 17.7607H87.1117C91.737 17.7607 95.5 21.4699 95.5 26.0291V70.5584C95.5 71.1087 95.0476 71.5546 94.4894 71.5546Z"/>
</mask>
<path d="M94.4894 71.5546H1.51064C0.952564 71.5546 0.5 71.1087 0.5 70.5584V26.0291C0.5 21.4699 4.26301 17.7607 8.8883 17.7607H44.0589C44.617 17.7607 45.0696 18.2068 45.0696 18.7569C45.0696 19.307 44.617 19.7531 44.0589 19.7531H8.8883C5.37754 19.7531 2.52128 22.5685 2.52128 26.0291V69.5622H93.4787V26.0291C93.4787 22.5685 90.6225 19.7531 87.1117 19.7531H64.0685C63.5103 19.7531 63.0579 19.307 63.0579 18.7569C63.0579 18.2068 63.5103 17.7607 64.0685 17.7607H87.1117C91.737 17.7607 95.5 21.4699 95.5 26.0291V70.5584C95.5 71.1087 95.0476 71.5546 94.4894 71.5546Z" fill="#6D95FC"/>
<path d="M2.52128 69.5622H-1.47872V73.5622H2.52128V69.5622ZM93.4787 69.5622V73.5622H97.4787V69.5622H93.4787ZM94.4894 67.5546H1.51064V75.5546H94.4894V67.5546ZM1.51064 67.5546C3.10665 67.5546 4.5 68.8449 4.5 70.5584H-3.5C-3.5 73.3725 -1.20152 75.5546 1.51064 75.5546V67.5546ZM4.5 70.5584V26.0291H-3.5V70.5584H4.5ZM4.5 26.0291C4.5 23.7332 6.41762 21.7607 8.8883 21.7607V13.7607C2.1084 13.7607 -3.5 19.2067 -3.5 26.0291H4.5ZM8.8883 21.7607H44.0589V13.7607H8.8883V21.7607ZM44.0589 21.7607C42.4624 21.7607 41.0696 20.4701 41.0696 18.7569H49.0696C49.0696 15.9436 46.7716 13.7607 44.0589 13.7607V21.7607ZM41.0696 18.7569C41.0696 17.0437 42.4624 15.7531 44.0589 15.7531V23.7531C46.7716 23.7531 49.0696 21.5703 49.0696 18.7569H41.0696ZM44.0589 15.7531H8.8883V23.7531H44.0589V15.7531ZM8.8883 15.7531C3.22293 15.7531 -1.47872 20.3052 -1.47872 26.0291H6.52128C6.52128 24.8318 7.53215 23.7531 8.8883 23.7531V15.7531ZM-1.47872 26.0291V69.5622H6.52128V26.0291H-1.47872ZM2.52128 73.5622H93.4787V65.5622H2.52128V73.5622ZM97.4787 69.5622V26.0291H89.4787V69.5622H97.4787ZM97.4787 26.0291C97.4787 20.3052 92.7771 15.7531 87.1117 15.7531V23.7531C88.4678 23.7531 89.4787 24.8318 89.4787 26.0291H97.4787ZM87.1117 15.7531H64.0685V23.7531H87.1117V15.7531ZM64.0685 15.7531C65.6654 15.7531 67.0579 17.0443 67.0579 18.7569H59.0579C59.0579 21.5698 61.3551 23.7531 64.0685 23.7531V15.7531ZM67.0579 18.7569C67.0579 20.4696 65.6654 21.7607 64.0685 21.7607V13.7607C61.3551 13.7607 59.0579 15.9441 59.0579 18.7569H67.0579ZM64.0685 21.7607H87.1117V13.7607H64.0685V21.7607ZM87.1117 21.7607C89.5824 21.7607 91.5 23.7332 91.5 26.0291H99.5C99.5 19.2067 93.8916 13.7607 87.1117 13.7607V21.7607ZM91.5 26.0291V70.5584H99.5V26.0291H91.5ZM91.5 70.5584C91.5 68.8454 92.893 67.5546 94.4894 67.5546V75.5546C97.2023 75.5546 99.5 73.3719 99.5 70.5584H91.5Z" fill="#FBFBFB" mask="url(#path-3-inside-2_74_157)"/>
<mask id="path-5-inside-3_74_157" fill="white">
<path d="M32.1338 41.3682C31.8696 41.3682 31.6115 41.266 31.419 41.0766C31.1561 40.8174 31.0588 40.437 31.1658 40.086L35.4535 25.998C35.5016 25.84 35.5885 25.6963 35.7068 25.5798L59.2896 2.33425C60.8167 0.829023 62.8471 0 65.0064 0C67.1661 0 69.1963 0.829023 70.7234 2.33425C72.2506 3.83948 73.0917 5.84081 73.0917 7.96946C73.0917 10.0983 72.2506 12.0994 70.7234 13.6049L47.1409 36.8502C47.0227 36.9667 46.8769 37.0526 46.7167 37.0998L32.4242 41.3262C32.3286 41.3547 32.2308 41.3682 32.1338 41.3682ZM37.3161 26.8108L33.641 38.8864L45.8918 35.2636L69.2943 12.1959C70.4396 11.0668 71.0704 9.56594 71.0704 7.96946C71.0704 6.37297 70.4396 4.87193 69.2943 3.74305C68.1491 2.61398 66.6262 1.99236 65.0064 1.99236C63.3867 1.99236 61.8639 2.61418 60.7187 3.74305L37.3161 26.8108Z"/>
</mask>
<path d="M32.1338 41.3682C31.8696 41.3682 31.6115 41.266 31.419 41.0766C31.1561 40.8174 31.0588 40.437 31.1658 40.086L35.4535 25.998C35.5016 25.84 35.5885 25.6963 35.7068 25.5798L59.2896 2.33425C60.8167 0.829023 62.8471 0 65.0064 0C67.1661 0 69.1963 0.829023 70.7234 2.33425C72.2506 3.83948 73.0917 5.84081 73.0917 7.96946C73.0917 10.0983 72.2506 12.0994 70.7234 13.6049L47.1409 36.8502C47.0227 36.9667 46.8769 37.0526 46.7167 37.0998L32.4242 41.3262C32.3286 41.3547 32.2308 41.3682 32.1338 41.3682ZM37.3161 26.8108L33.641 38.8864L45.8918 35.2636L69.2943 12.1959C70.4396 11.0668 71.0704 9.56594 71.0704 7.96946C71.0704 6.37297 70.4396 4.87193 69.2943 3.74305C68.1491 2.61398 66.6262 1.99236 65.0064 1.99236C63.3867 1.99236 61.8639 2.61418 60.7187 3.74305L37.3161 26.8108Z" fill="#6D95FC"/>
<path d="M31.419 41.0766L28.6111 43.9253L28.6126 43.9268L31.419 41.0766ZM31.1658 40.086L34.9922 41.2514L34.9925 41.2506L31.1658 40.086ZM35.4535 25.998L31.6269 24.8328L31.6268 24.8333L35.4535 25.998ZM35.7068 25.5798L32.8988 22.731H32.8988L35.7068 25.5798ZM59.2896 2.33425L62.0976 5.18298V5.18298L59.2896 2.33425ZM70.7234 2.33425L67.9154 5.18298L67.9156 5.18317L70.7234 2.33425ZM70.7234 13.6049L67.9154 10.7561L67.9154 10.7561L70.7234 13.6049ZM47.1409 36.8502L49.9489 39.6989L49.9489 39.6989L47.1409 36.8502ZM46.7167 37.0998L45.5863 33.2628L45.5824 33.264L46.7167 37.0998ZM32.4242 41.3262L31.2899 37.4904L31.2819 37.4928L32.4242 41.3262ZM37.3161 26.8108L34.5081 23.9621L33.785 24.6749L33.4894 25.6462L37.3161 26.8108ZM33.641 38.8864L29.8143 37.7217L27.6513 44.8288L34.7753 42.7222L33.641 38.8864ZM45.8918 35.2636L47.0261 39.0994L47.9865 38.8154L48.6998 38.1124L45.8918 35.2636ZM69.2943 12.1959L72.1023 15.0446L72.1026 15.0443L69.2943 12.1959ZM69.2943 3.74305L66.4861 6.59153L66.4863 6.59178L69.2943 3.74305ZM60.7187 3.74305L63.5266 6.59178L60.7187 3.74305ZM32.1338 37.3682C32.8959 37.3682 33.6528 37.6624 34.2255 38.2264L28.6126 43.9268C29.5701 44.8696 30.8433 45.3682 32.1338 45.3682V37.3682ZM34.227 38.2278C35.0156 39.0051 35.3221 40.1683 34.9922 41.2514L27.3393 38.9205C26.7956 40.7057 27.2965 42.6296 28.6111 43.9253L34.227 38.2278ZM34.9925 41.2506L39.2802 27.1626L31.6268 24.8333L27.3391 38.9213L34.9925 41.2506ZM39.2801 27.1631C39.1336 27.6441 38.8696 28.0787 38.5147 28.4285L32.8988 22.731C32.3075 23.3139 31.8696 24.0358 31.6269 24.8328L39.2801 27.1631ZM38.5147 28.4285L62.0976 5.18298L56.4816 -0.514475L32.8988 22.731L38.5147 28.4285ZM62.0976 5.18298C62.8703 4.4213 63.8896 4 65.0064 4V-4C61.8045 -4 58.763 -2.76325 56.4816 -0.514475L62.0976 5.18298ZM65.0064 4C66.1236 4 67.1426 4.4213 67.9154 5.18298L73.5313 -0.514475C71.2499 -2.76325 68.2087 -4 65.0064 -4V4ZM67.9156 5.18317C68.6864 5.94284 69.0917 6.92054 69.0917 7.96946H77.0917C77.0917 4.76109 75.8149 1.73613 73.5312 -0.51466L67.9156 5.18317ZM69.0917 7.96946C69.0917 9.01847 68.6864 9.99611 67.9154 10.7561L73.5313 16.4536C75.8148 14.2027 77.0917 11.1781 77.0917 7.96946H69.0917ZM67.9154 10.7561L44.3329 34.0014L49.9489 39.6989L73.5313 16.4536L67.9154 10.7561ZM44.3329 34.0014C44.6853 33.6542 45.1163 33.4013 45.5863 33.2628L47.847 40.9368C48.6376 40.7039 49.3601 40.2793 49.9489 39.6989L44.3329 34.0014ZM45.5824 33.264L31.2899 37.4904L33.5585 45.162L47.8509 40.9356L45.5824 33.264ZM31.2819 37.4928C31.5704 37.4068 31.8582 37.3682 32.1338 37.3682V45.3682C32.6034 45.3682 33.0868 45.3026 33.5666 45.1596L31.2819 37.4928ZM33.4894 25.6462L29.8143 37.7217L37.4677 40.051L41.1428 27.9755L33.4894 25.6462ZM34.7753 42.7222L47.0261 39.0994L44.7575 31.4278L32.5067 35.0506L34.7753 42.7222ZM48.6998 38.1124L72.1023 15.0446L66.4863 9.34713L43.0838 32.4149L48.6998 38.1124ZM72.1026 15.0443C74.0037 13.17 75.0704 10.6459 75.0704 7.96946H67.0704C67.0704 8.48602 66.8754 8.96354 66.4861 9.34738L72.1026 15.0443ZM75.0704 7.96946C75.0704 5.29326 74.0039 2.76869 72.1023 0.894325L66.4863 6.59178C66.8753 6.97516 67.0704 7.45269 67.0704 7.96946H75.0704ZM72.1026 0.894573C70.2026 -0.978566 67.6684 -2.00764 65.0064 -2.00764V5.99236C65.5841 5.99236 66.0956 6.20653 66.4861 6.59153L72.1026 0.894573ZM65.0064 -2.00764C62.3442 -2.00764 59.8103 -0.978113 57.9107 0.894325L63.5266 6.59178C63.9175 6.20647 64.4293 5.99236 65.0064 5.99236V-2.00764ZM57.9107 0.894325L34.5081 23.9621L40.1241 29.6596L63.5266 6.59178L57.9107 0.894325Z" fill="#6D95FC" mask="url(#path-5-inside-3_74_157)"/>
<mask id="path-7-inside-4_74_157" fill="white">
<path d="M39.9949 32.1736C38.8302 32.1736 37.6658 31.7367 36.779 30.8628C35.006 29.1149 35.006 26.271 36.779 24.5231C37.1736 24.1342 37.8135 24.1342 38.2083 24.5231C38.603 24.9122 38.603 25.5428 38.2083 25.9319C37.2231 26.903 37.2231 28.4829 38.2083 29.454C39.1934 30.4251 40.7963 30.4251 41.7815 29.454C42.1764 29.0651 42.8162 29.0653 43.2107 29.454C43.6055 29.8431 43.6055 30.4739 43.2107 30.8628C42.3242 31.7367 41.1595 32.1736 39.9949 32.1736Z"/>
</mask>
<path d="M39.9949 32.1736C38.8302 32.1736 37.6658 31.7367 36.779 30.8628C35.006 29.1149 35.006 26.271 36.779 24.5231C37.1736 24.1342 37.8135 24.1342 38.2083 24.5231C38.603 24.9122 38.603 25.5428 38.2083 25.9319C37.2231 26.903 37.2231 28.4829 38.2083 29.454C39.1934 30.4251 40.7963 30.4251 41.7815 29.454C42.1764 29.0651 42.8162 29.0653 43.2107 29.454C43.6055 29.8431 43.6055 30.4739 43.2107 30.8628C42.3242 31.7367 41.1595 32.1736 39.9949 32.1736Z" fill="#6D95FC"/>
<path d="M36.779 30.8628L33.9709 33.7114L33.9714 33.7119L36.779 30.8628ZM36.779 24.5231L33.971 21.6744L33.9709 21.6746L36.779 24.5231ZM38.2083 24.5231L41.0162 21.6744L41.0155 21.6737L38.2083 24.5231ZM41.7815 29.454L38.975 26.6039L38.9735 26.6053L41.7815 29.454ZM43.2107 29.454L46.0187 26.6053L46.018 26.6046L43.2107 29.454ZM43.2107 30.8628L40.4035 28.0134L40.4027 28.0141L43.2107 30.8628ZM39.9949 28.1736C39.8261 28.1736 39.6868 28.1125 39.5867 28.0138L33.9714 33.7119C35.6447 35.3609 37.8343 36.1736 39.9949 36.1736V28.1736ZM39.5872 28.0143C39.4032 27.833 39.4032 27.553 39.5872 27.3717L33.9709 21.6746C30.6087 24.9891 30.6087 30.3969 33.9709 33.7114L39.5872 28.0143ZM39.587 27.3719C38.4238 28.5184 36.563 28.5173 35.401 27.3726L41.0155 21.6737C39.064 19.7511 35.9233 19.7501 33.971 21.6744L39.587 27.3719ZM35.4003 27.3719C34.2057 26.1943 34.2057 24.2607 35.4003 23.0832L41.0162 28.7807C43.0004 26.8249 43.0004 23.6301 41.0162 21.6744L35.4003 27.3719ZM35.4003 23.0832C32.8258 25.6209 32.8258 29.7651 35.4003 32.3028L41.0162 26.6053C41.6204 27.2008 41.6204 28.1851 41.0162 28.7807L35.4003 23.0832ZM35.4003 32.3028C37.9428 34.8089 42.047 34.8089 44.5895 32.3028L38.9735 26.6053C39.5456 26.0413 40.4441 26.0413 41.0162 26.6053L35.4003 32.3028ZM44.588 32.3042C43.4259 33.4485 41.5659 33.4487 40.4035 32.3035L46.018 26.6046C44.0664 24.6819 40.927 24.6817 38.975 26.6039L44.588 32.3042ZM40.4027 32.3028C39.2085 31.1256 39.2075 29.1917 40.4035 28.0134L46.018 33.7123C48.0035 31.7562 48.0024 28.5606 46.0187 26.6053L40.4027 32.3028ZM40.4027 28.0141C40.3031 28.1123 40.1639 28.1736 39.9949 28.1736V36.1736C42.1551 36.1736 44.3453 35.361 46.0187 33.7116L40.4027 28.0141Z" fill="#6D95FC" mask="url(#path-7-inside-4_74_157)"/>
<path d="M55.7632 18.4807C55.7632 18.4808 55.7631 18.4808 55.7631 18.4809L55.7632 18.4807ZM54.3847 17.0404L54.3843 17.0408L54.3847 17.0404ZM54.3592 17.0563L54.3593 17.0564L54.3592 17.0563ZM54.3594 17.0564L54.3638 17.061L54.3594 17.0564Z" fill="#6D95FC" stroke="#6D95FC" stroke-width="4"/>
<mask id="path-10-inside-5_74_157" fill="white">
<path d="M67.1522 16.7143C66.8937 16.7143 66.6348 16.6171 66.4377 16.4226L56.4328 6.56083C56.038 6.17173 56.038 5.54094 56.4328 5.15203C56.8271 4.76312 57.4675 4.76312 57.8618 5.15203L67.8667 15.0138C68.2615 15.4029 68.2615 16.0337 67.8667 16.4226C67.6697 16.6171 67.4107 16.7143 67.1522 16.7143Z"/>
</mask>
<path d="M67.1522 16.7143C66.8937 16.7143 66.6348 16.6171 66.4377 16.4226L56.4328 6.56083C56.038 6.17173 56.038 5.54094 56.4328 5.15203C56.8271 4.76312 57.4675 4.76312 57.8618 5.15203L67.8667 15.0138C68.2615 15.4029 68.2615 16.0337 67.8667 16.4226C67.6697 16.6171 67.4107 16.7143 67.1522 16.7143Z" fill="#6D95FC"/>
<path d="M66.4377 16.4226L69.2471 13.5753L69.2457 13.5739L66.4377 16.4226ZM56.4328 6.56083L59.2408 3.71211L59.2408 3.71211L56.4328 6.56083ZM56.4328 5.15203L59.24 8.00148L59.2415 8.00004L56.4328 5.15203ZM57.8618 5.15203L55.0531 8.00004L55.0538 8.00076L57.8618 5.15203ZM67.8667 15.0138L65.0588 17.8626L67.8667 15.0138ZM67.8667 16.4226L65.0595 13.5732L65.0573 13.5754L67.8667 16.4226ZM67.1522 12.7143C67.8913 12.7143 68.6581 12.9941 69.2471 13.5754L63.6283 19.2699C64.6115 20.2401 65.8961 20.7143 67.1522 20.7143V12.7143ZM69.2457 13.5739L59.2408 3.71211L53.6248 9.40956L63.6297 19.2714L69.2457 13.5739ZM59.2408 3.71211C60.435 4.88922 60.436 6.82321 59.24 8.00148L53.6255 2.30259C51.64 4.25868 51.6411 7.45423 53.6248 9.40956L59.2408 3.71211ZM59.2415 8.00004C58.0784 9.14712 56.2162 9.14712 55.0531 8.00004L60.6705 2.30403C58.7187 0.379127 55.5759 0.379127 53.6241 2.30403L59.2415 8.00004ZM55.0538 8.00076L65.0588 17.8626L70.6747 12.1651L60.6698 2.30331L55.0538 8.00076ZM65.0588 17.8626C63.8646 16.6855 63.8635 14.7515 65.0595 13.5732L70.674 19.2721C72.6595 17.316 72.6584 14.1204 70.6747 12.1651L65.0588 17.8626ZM65.0573 13.5754C65.6464 12.9941 66.4132 12.7143 67.1522 12.7143V20.7143C68.4083 20.7143 69.693 20.2401 70.6762 19.2699L65.0573 13.5754Z" fill="#6D95FC" mask="url(#path-10-inside-5_74_157)"/>
<mask id="path-12-inside-6_74_157" fill="white">
<path d="M70.2331 61.5924H54.0629C50.7193 61.5924 47.9991 58.9111 47.9991 55.6153C47.9991 52.3196 50.7193 49.6382 54.0629 49.6382H76.297C78.526 49.6382 80.3395 47.8507 80.3395 45.6535V45.3531C80.3395 43.1559 78.526 41.3683 76.297 41.3683H32.1337C31.5756 41.3683 31.123 40.9223 31.123 40.3722C31.123 39.8221 31.5756 39.376 32.1337 39.376H76.297C79.6406 39.376 82.3608 42.0573 82.3608 45.3531V45.6535C82.3608 48.9493 79.6406 51.6306 76.297 51.6306H54.0629C51.8339 51.6306 50.0204 53.4182 50.0204 55.6153C50.0204 57.8125 51.8339 59.6001 54.0629 59.6001H70.2331C70.7914 59.6001 71.2438 60.046 71.2438 60.5962C71.2438 61.1465 70.7914 61.5924 70.2331 61.5924Z"/>
</mask>
<path d="M70.2331 61.5924H54.0629C50.7193 61.5924 47.9991 58.9111 47.9991 55.6153C47.9991 52.3196 50.7193 49.6382 54.0629 49.6382H76.297C78.526 49.6382 80.3395 47.8507 80.3395 45.6535V45.3531C80.3395 43.1559 78.526 41.3683 76.297 41.3683H32.1337C31.5756 41.3683 31.123 40.9223 31.123 40.3722C31.123 39.8221 31.5756 39.376 32.1337 39.376H76.297C79.6406 39.376 82.3608 42.0573 82.3608 45.3531V45.6535C82.3608 48.9493 79.6406 51.6306 76.297 51.6306H54.0629C51.8339 51.6306 50.0204 53.4182 50.0204 55.6153C50.0204 57.8125 51.8339 59.6001 54.0629 59.6001H70.2331C70.7914 59.6001 71.2438 60.046 71.2438 60.5962C71.2438 61.1465 70.7914 61.5924 70.2331 61.5924Z" fill="#6D95FC"/>
<path d="M70.2331 57.5924H54.0629V65.5924H70.2331V57.5924ZM54.0629 57.5924C52.8739 57.5924 51.9991 56.6478 51.9991 55.6153H43.9991C43.9991 61.1744 48.5647 65.5924 54.0629 65.5924V57.5924ZM51.9991 55.6153C51.9991 54.5828 52.8739 53.6382 54.0629 53.6382V45.6382C48.5647 45.6382 43.9991 50.0563 43.9991 55.6153H51.9991ZM54.0629 53.6382H76.297V45.6382H54.0629V53.6382ZM76.297 53.6382C80.6806 53.6382 84.3395 50.114 84.3395 45.6535H76.3395C76.3395 45.6523 76.3397 45.6474 76.3412 45.6405C76.3426 45.6337 76.3445 45.6279 76.3464 45.6235C76.35 45.6151 76.3515 45.6158 76.3462 45.6211C76.3408 45.6264 76.334 45.6309 76.3275 45.6336C76.3246 45.6348 76.3215 45.6357 76.3178 45.6365C76.3142 45.6372 76.3077 45.6382 76.297 45.6382V53.6382ZM84.3395 45.6535V45.3531H76.3395V45.6535H84.3395ZM84.3395 45.3531C84.3395 40.8926 80.6806 37.3683 76.297 37.3683V45.3683C76.3077 45.3683 76.3142 45.3694 76.3178 45.3701C76.3215 45.3708 76.3246 45.3718 76.3275 45.373C76.334 45.3757 76.3408 45.3802 76.3462 45.3855C76.3515 45.3908 76.35 45.3914 76.3464 45.3831C76.3445 45.3787 76.3426 45.3728 76.3412 45.3661C76.3397 45.3591 76.3395 45.3543 76.3395 45.3531H84.3395ZM76.297 37.3683H32.1337V45.3683H76.297V37.3683ZM32.1337 37.3683C33.7302 37.3683 35.123 38.659 35.123 40.3722H27.123C27.123 43.1855 29.421 45.3683 32.1337 45.3683V37.3683ZM35.123 40.3722C35.123 42.0853 33.7302 43.376 32.1337 43.376V35.376C29.421 35.376 27.123 37.5588 27.123 40.3722H35.123ZM32.1337 43.376H76.297V35.376H32.1337V43.376ZM76.297 43.376C77.4859 43.376 78.3608 44.3206 78.3608 45.3531H86.3608C86.3608 39.794 81.7952 35.376 76.297 35.376V43.376ZM78.3608 45.3531V45.6535H86.3608V45.3531H78.3608ZM78.3608 45.6535C78.3608 46.686 77.4859 47.6306 76.297 47.6306V55.6306C81.7952 55.6306 86.3608 51.2126 86.3608 45.6535H78.3608ZM76.297 47.6306H54.0629V55.6306H76.297V47.6306ZM54.0629 47.6306C49.6792 47.6306 46.0204 51.1549 46.0204 55.6153H54.0204C54.0204 55.6166 54.0202 55.6214 54.0187 55.6284C54.0173 55.6351 54.0153 55.641 54.0134 55.6454C54.0099 55.6537 54.0084 55.653 54.0137 55.6478C54.0191 55.6425 54.0259 55.638 54.0324 55.6353C54.0352 55.6341 54.0383 55.6331 54.0421 55.6323C54.0456 55.6316 54.0522 55.6306 54.0629 55.6306V47.6306ZM46.0204 55.6153C46.0204 60.0758 49.6792 63.6001 54.0629 63.6001V55.6001C54.0522 55.6001 54.0456 55.5991 54.0421 55.5983C54.0383 55.5976 54.0352 55.5966 54.0324 55.5954C54.0259 55.5927 54.0191 55.5882 54.0137 55.5829C54.0084 55.5776 54.0099 55.577 54.0134 55.5853C54.0153 55.5897 54.0173 55.5956 54.0187 55.6023C54.0202 55.6093 54.0204 55.6141 54.0204 55.6153H46.0204ZM54.0629 63.6001H70.2331V55.6001H54.0629V63.6001ZM70.2331 63.6001C68.6368 63.6001 67.2438 62.3092 67.2438 60.5962H75.2438C75.2438 57.7827 72.946 55.6001 70.2331 55.6001V63.6001ZM67.2438 60.5962C67.2438 58.8833 68.6368 57.5924 70.2331 57.5924V65.5924C72.946 65.5924 75.2438 63.4098 75.2438 60.5962H67.2438Z" fill="#6D95FC" mask="url(#path-12-inside-6_74_157)"/>
<mask id="path-14-inside-7_74_157" fill="white">
<path d="M31.8298 62.5881H1.51064C0.952564 62.5881 0.5 62.1422 0.5 61.5919C0.5 61.0416 0.952564 60.5957 1.51064 60.5957H31.8298C32.3879 60.5957 32.8404 61.0416 32.8404 61.5919C32.8404 62.1422 32.3879 62.5881 31.8298 62.5881Z"/>
</mask>
<path d="M31.8298 62.5881H1.51064C0.952564 62.5881 0.5 62.1422 0.5 61.5919C0.5 61.0416 0.952564 60.5957 1.51064 60.5957H31.8298C32.3879 60.5957 32.8404 61.0416 32.8404 61.5919C32.8404 62.1422 32.3879 62.5881 31.8298 62.5881Z" fill="#6D95FC"/>
<path d="M31.8298 58.5881H1.51064V66.5881H31.8298V58.5881ZM1.51064 58.5881C3.10665 58.5881 4.5 59.8784 4.5 61.5919H-3.5C-3.5 64.406 -1.20152 66.5881 1.51064 66.5881V58.5881ZM4.5 61.5919C4.5 63.3054 3.10665 64.5957 1.51064 64.5957V56.5957C-1.20152 56.5957 -3.5 58.7778 -3.5 61.5919H4.5ZM1.51064 64.5957H31.8298V56.5957H1.51064V64.5957ZM31.8298 64.5957C30.2338 64.5957 28.8404 63.3054 28.8404 61.5919H36.8404C36.8404 58.7778 34.5419 56.5957 31.8298 56.5957V64.5957ZM28.8404 61.5919C28.8404 59.8784 30.2338 58.5881 31.8298 58.5881V66.5881C34.5419 66.5881 36.8404 64.406 36.8404 61.5919H28.8404Z" fill="#FBFBFB" mask="url(#path-14-inside-7_74_157)"/>
<mask id="path-16-inside-8_74_157" fill="white">
<path d="M31.8298 56.6115H1.51064C0.952564 56.6115 0.5 56.1656 0.5 55.6153C0.5 55.065 0.952564 54.6191 1.51064 54.6191H31.8298C32.3879 54.6191 32.8404 55.065 32.8404 55.6153C32.8404 56.1656 32.3879 56.6115 31.8298 56.6115Z"/>
</mask>
<path d="M31.8298 56.6115H1.51064C0.952564 56.6115 0.5 56.1656 0.5 55.6153C0.5 55.065 0.952564 54.6191 1.51064 54.6191H31.8298C32.3879 54.6191 32.8404 55.065 32.8404 55.6153C32.8404 56.1656 32.3879 56.6115 31.8298 56.6115Z" fill="#6D95FC"/>
<path d="M31.8298 52.6115H1.51064V60.6115H31.8298V52.6115ZM1.51064 52.6115C3.10665 52.6115 4.5 53.9018 4.5 55.6153H-3.5C-3.5 58.4294 -1.20152 60.6115 1.51064 60.6115V52.6115ZM4.5 55.6153C4.5 57.3288 3.10665 58.6191 1.51064 58.6191V50.6191C-1.20152 50.6191 -3.5 52.8012 -3.5 55.6153H4.5ZM1.51064 58.6191H31.8298V50.6191H1.51064V58.6191ZM31.8298 58.6191C30.2338 58.6191 28.8404 57.3288 28.8404 55.6153H36.8404C36.8404 52.8012 34.5419 50.6191 31.8298 50.6191V58.6191ZM28.8404 55.6153C28.8404 53.9018 30.2338 52.6115 31.8298 52.6115V60.6115C34.5419 60.6115 36.8404 58.4294 36.8404 55.6153H28.8404Z" fill="#FBFBFB" mask="url(#path-16-inside-8_74_157)"/>
<mask id="path-18-inside-9_74_157" fill="white">
<path d="M31.8298 50.6349H1.51064C0.952564 50.6349 0.5 50.1891 0.5 49.6388C0.5 49.0887 0.952564 48.6426 1.51064 48.6426H31.8298C32.3879 48.6426 32.8404 49.0887 32.8404 49.6388C32.8404 50.1891 32.3879 50.6349 31.8298 50.6349Z"/>
</mask>
<path d="M31.8298 50.6349H1.51064C0.952564 50.6349 0.5 50.1891 0.5 49.6388C0.5 49.0887 0.952564 48.6426 1.51064 48.6426H31.8298C32.3879 48.6426 32.8404 49.0887 32.8404 49.6388C32.8404 50.1891 32.3879 50.6349 31.8298 50.6349Z" fill="#6D95FC"/>
<path d="M31.8298 46.6349H1.51064V54.6349H31.8298V46.6349ZM1.51064 46.6349C3.10667 46.6349 4.5 47.9253 4.5 49.6388H-3.5C-3.5 52.4528 -1.20154 54.6349 1.51064 54.6349V46.6349ZM4.5 49.6388C4.5 51.3519 3.10718 52.6426 1.51064 52.6426V44.6426C-1.20205 44.6426 -3.5 46.8254 -3.5 49.6388H4.5ZM1.51064 52.6426H31.8298V44.6426H1.51064V52.6426ZM31.8298 52.6426C30.2332 52.6426 28.8404 51.3519 28.8404 49.6388H36.8404C36.8404 46.8254 34.5425 44.6426 31.8298 44.6426V52.6426ZM28.8404 49.6388C28.8404 47.9253 30.2338 46.6349 31.8298 46.6349V54.6349C34.542 54.6349 36.8404 52.4528 36.8404 49.6388H28.8404Z" fill="#FBFBFB" mask="url(#path-18-inside-9_74_157)"/>
<mask id="path-20-inside-10_74_157" fill="white">
<path d="M59.1177 95.4622H36.8837C36.3256 95.4622 35.873 95.0163 35.873 94.466V82.5118C35.873 81.9615 36.3256 81.5156 36.8837 81.5156H59.1177C59.676 81.5156 60.1284 81.9615 60.1284 82.5118V94.466C60.1284 95.0163 59.676 95.4622 59.1177 95.4622ZM37.8943 93.4698H58.1071V83.508H37.8943V93.4698Z"/>
</mask>
<path d="M59.1177 95.4622H36.8837C36.3256 95.4622 35.873 95.0163 35.873 94.466V82.5118C35.873 81.9615 36.3256 81.5156 36.8837 81.5156H59.1177C59.676 81.5156 60.1284 81.9615 60.1284 82.5118V94.466C60.1284 95.0163 59.676 95.4622 59.1177 95.4622ZM37.8943 93.4698H58.1071V83.508H37.8943V93.4698Z" fill="#6D95FC"/>
<path d="M37.8943 93.4698H33.8943V97.4698H37.8943V93.4698ZM58.1071 93.4698V97.4698H62.1071V93.4698H58.1071ZM58.1071 83.508H62.1071V79.508H58.1071V83.508ZM37.8943 83.508V79.508H33.8943V83.508H37.8943ZM59.1177 91.4622H36.8837V99.4622H59.1177V91.4622ZM36.8837 91.4622C38.4797 91.4622 39.873 92.7525 39.873 94.466H31.873C31.873 97.2801 34.1715 99.4622 36.8837 99.4622V91.4622ZM39.873 94.466V82.5118H31.873V94.466H39.873ZM39.873 82.5118C39.873 84.2253 38.4797 85.5156 36.8837 85.5156V77.5156C34.1715 77.5156 31.873 79.6977 31.873 82.5118H39.873ZM36.8837 85.5156H59.1177V77.5156H36.8837V85.5156ZM59.1177 85.5156C57.5214 85.5156 56.1284 84.2248 56.1284 82.5118H64.1284C64.1284 79.6982 61.8306 77.5156 59.1177 77.5156V85.5156ZM56.1284 82.5118V94.466H64.1284V82.5118H56.1284ZM56.1284 94.466C56.1284 92.753 57.5214 91.4622 59.1177 91.4622V99.4622C61.8306 99.4622 64.1284 97.2796 64.1284 94.466H56.1284ZM37.8943 97.4698H58.1071V89.4698H37.8943V97.4698ZM62.1071 93.4698V83.508H54.1071V93.4698H62.1071ZM58.1071 79.508H37.8943V87.508H58.1071V79.508ZM33.8943 83.508V93.4698H41.8943V83.508H33.8943Z" fill="#FBFBFB" mask="url(#path-20-inside-10_74_157)"/>
<mask id="path-22-inside-11_74_157" fill="white">
<path d="M54.0641 95.4622H41.9364C41.3783 95.4622 40.9258 95.0163 40.9258 94.466V82.5118C40.9258 81.9615 41.3783 81.5156 41.9364 81.5156H54.0641C54.6224 81.5156 55.0747 81.9615 55.0747 82.5118V94.466C55.0747 95.0163 54.6224 95.4622 54.0641 95.4622ZM42.9471 93.4698H53.0534V83.508H42.9471V93.4698Z"/>
</mask>
<path d="M54.0641 95.4622H41.9364C41.3783 95.4622 40.9258 95.0163 40.9258 94.466V82.5118C40.9258 81.9615 41.3783 81.5156 41.9364 81.5156H54.0641C54.6224 81.5156 55.0747 81.9615 55.0747 82.5118V94.466C55.0747 95.0163 54.6224 95.4622 54.0641 95.4622ZM42.9471 93.4698H53.0534V83.508H42.9471V93.4698Z" fill="#6D95FC"/>
<path d="M42.9471 93.4698H38.9471V97.4698H42.9471V93.4698ZM53.0534 93.4698V97.4698H57.0534V93.4698H53.0534ZM53.0534 83.508H57.0534V79.508H53.0534V83.508ZM42.9471 83.508V79.508H38.9471V83.508H42.9471ZM54.0641 91.4622H41.9364V99.4622H54.0641V91.4622ZM41.9364 91.4622C43.5324 91.4622 44.9258 92.7525 44.9258 94.466H36.9258C36.9258 97.2801 39.2243 99.4622 41.9364 99.4622V91.4622ZM44.9258 94.466V82.5118H36.9258V94.466H44.9258ZM44.9258 82.5118C44.9258 84.2253 43.5324 85.5156 41.9364 85.5156V77.5156C39.2243 77.5156 36.9258 79.6977 36.9258 82.5118H44.9258ZM41.9364 85.5156H54.0641V77.5156H41.9364V85.5156ZM54.0641 85.5156C52.4677 85.5156 51.0747 84.2248 51.0747 82.5118H59.0747C59.0747 79.6982 56.777 77.5156 54.0641 77.5156V85.5156ZM51.0747 82.5118V94.466H59.0747V82.5118H51.0747ZM51.0747 94.466C51.0747 92.753 52.4677 91.4622 54.0641 91.4622V99.4622C56.777 99.4622 59.0747 97.2796 59.0747 94.466H51.0747ZM42.9471 97.4698H53.0534V89.4698H42.9471V97.4698ZM57.0534 93.4698V83.508H49.0534V93.4698H57.0534ZM53.0534 79.508H42.9471V87.508H53.0534V79.508ZM38.9471 83.508V93.4698H46.9471V83.508H38.9471Z" fill="#FBFBFB" mask="url(#path-22-inside-11_74_157)"/>
<mask id="path-24-inside-12_74_157" fill="white">
<path d="M62.1481 99.4468H33.8503C32.1785 99.4468 30.8184 98.1062 30.8184 96.4583C30.8184 94.8104 32.1785 93.4697 33.8503 93.4697H62.1481C63.8199 93.4697 65.1801 94.8104 65.1801 96.4583C65.1801 98.1062 63.8199 99.4468 62.1481 99.4468ZM33.8503 95.4621C33.293 95.4621 32.8396 95.909 32.8396 96.4583C32.8396 97.0076 33.293 97.4545 33.8503 97.4545H62.1481C62.7054 97.4545 63.1588 97.0076 63.1588 96.4583C63.1588 95.909 62.7054 95.4621 62.1481 95.4621H33.8503Z"/>
</mask>
<path d="M62.1481 99.4468H33.8503C32.1785 99.4468 30.8184 98.1062 30.8184 96.4583C30.8184 94.8104 32.1785 93.4697 33.8503 93.4697H62.1481C63.8199 93.4697 65.1801 94.8104 65.1801 96.4583C65.1801 98.1062 63.8199 99.4468 62.1481 99.4468ZM33.8503 95.4621C33.293 95.4621 32.8396 95.909 32.8396 96.4583C32.8396 97.0076 33.293 97.4545 33.8503 97.4545H62.1481C62.7054 97.4545 63.1588 97.0076 63.1588 96.4583C63.1588 95.909 62.7054 95.4621 62.1481 95.4621H33.8503Z" fill="#6D95FC"/>
<path d="M62.1481 95.4468H33.8503V103.447H62.1481V95.4468ZM33.8503 95.4468C34.3331 95.4468 34.8184 95.8429 34.8184 96.4583H26.8184C26.8184 100.369 30.0239 103.447 33.8503 103.447V95.4468ZM34.8184 96.4583C34.8184 97.0737 34.3331 97.4697 33.8503 97.4697V89.4697C30.0239 89.4697 26.8184 92.5471 26.8184 96.4583H34.8184ZM33.8503 97.4697H62.1481V89.4697H33.8503V97.4697ZM62.1481 97.4697C61.6653 97.4697 61.1801 97.0737 61.1801 96.4583H69.1801C69.1801 92.5471 65.9746 89.4697 62.1481 89.4697V97.4697ZM61.1801 96.4583C61.1801 95.8429 61.6653 95.4468 62.1481 95.4468V103.447C65.9746 103.447 69.1801 100.369 69.1801 96.4583H61.1801ZM33.8503 91.4621C31.1384 91.4621 28.8396 93.6457 28.8396 96.4583H36.8396C36.8396 98.1723 35.4476 99.4621 33.8503 99.4621V91.4621ZM28.8396 96.4583C28.8396 99.2708 31.1384 101.454 33.8503 101.454V93.4545C35.4476 93.4545 36.8396 94.7443 36.8396 96.4583H28.8396ZM33.8503 101.454H62.1481V93.4545H33.8503V101.454ZM62.1481 101.454C64.86 101.454 67.1588 99.2708 67.1588 96.4583H59.1588C59.1588 94.7443 60.5508 93.4545 62.1481 93.4545V101.454ZM67.1588 96.4583C67.1588 93.6457 64.86 91.4621 62.1481 91.4621V99.4621C60.5508 99.4621 59.1588 98.1723 59.1588 96.4583H67.1588ZM62.1481 91.4621H33.8503V99.4621H62.1481V91.4621Z" fill="#FBFBFB" mask="url(#path-24-inside-12_74_157)"/>
</svg>
