<svg width="96" height="95" viewBox="0 0 96 95" fill="none" xmlns="http://www.w3.org/2000/svg">
<path d="M30.3788 67.4202H16.5884C16.1657 67.4202 15.8223 67.0768 15.8223 66.6541V57.4605C15.8223 57.0377 16.1657 56.6943 16.5884 56.6943C17.0111 56.6943 17.3545 57.0377 17.3545 57.4605V65.888H30.3788C30.8016 65.888 31.145 66.2313 31.145 66.6541C31.145 67.0768 30.8016 67.4202 30.3788 67.4202Z" fill="#6D95FC"/>
<path d="M90.1364 67.4201H50.2974C49.8746 67.4201 49.5312 67.0767 49.5312 66.654C49.5312 66.2312 49.8746 65.8878 50.2974 65.8878H89.3694V27.5811H51.8279C51.4052 27.5811 51.0618 27.2377 51.0618 26.815C51.0618 26.3922 51.4052 26.0488 51.8279 26.0488H90.1346C90.5574 26.0488 90.9008 26.3922 90.9008 26.815V66.654C90.9008 67.0767 90.5574 67.4201 90.1346 67.4201H90.1364Z" fill="white"/>
<path d="M41.1035 91.936C41.0502 91.936 40.9934 91.9298 40.938 91.9175C40.5241 91.8258 40.2656 91.4168 40.3559 91.0029L43.4204 77.2125C43.5121 76.8 43.917 76.5428 44.335 76.6304C44.7488 76.722 45.0074 77.1311 44.9171 77.545L41.8526 91.3354C41.7732 91.6925 41.4544 91.936 41.1035 91.936Z" fill="white"/>
<path d="M65.6196 91.9359C65.2687 91.9359 64.95 91.6924 64.872 91.3353L61.8074 77.5449C61.7158 77.1311 61.9757 76.722 62.3896 76.6303C62.8082 76.5428 63.2125 76.8007 63.3042 77.2125L66.3687 91.0029C66.4604 91.4167 66.2004 91.8258 65.7866 91.9175C65.7298 91.9298 65.673 91.9359 65.6196 91.9359Z" fill="white"/>
<path d="M74.8131 78.1461H16.1648C13.4402 78.1461 11.2246 75.8997 11.2246 73.1369V57.4605C11.2246 57.0377 11.568 56.6943 11.9907 56.6943C12.4135 56.6943 12.7569 57.0377 12.7569 57.4605V73.1369C12.7569 75.0542 14.2844 76.6138 16.1648 76.6138H74.8131C75.2358 76.6138 75.5792 76.9572 75.5792 77.38C75.5792 77.8027 75.2358 78.1461 74.8131 78.1461Z" fill="white"/>
<path d="M90.5593 78.1461H87.0721C86.6493 78.1461 86.3059 77.8027 86.3059 77.38C86.3059 76.9572 86.6493 76.6138 87.0721 76.6138H90.5593C92.4398 76.6138 93.9673 75.0542 93.9673 73.1369V26.4614C93.9673 24.544 92.4398 22.9844 90.5593 22.9844H51.8306C51.4078 22.9844 51.0645 22.641 51.0645 22.2183C51.0645 21.7955 51.4078 21.4521 51.8306 21.4521H90.5593C93.284 21.4521 95.4996 23.6985 95.4996 26.4614V73.1369C95.4996 75.899 93.284 78.1456 90.5593 78.1456V78.1461Z" fill="white"/>
<path d="M83.2424 95.0006H78.6456C76.1112 95.0006 74.0488 92.9383 74.0488 90.4038V76.6134C74.0488 74.0789 76.1112 72.0166 78.6456 72.0166H83.2424C85.7769 72.0166 87.8393 74.0789 87.8393 76.6134V90.4038C87.8393 92.9383 85.7769 95.0006 83.2424 95.0006ZM78.6456 73.5489C76.9554 73.5489 75.5811 74.9231 75.5811 76.6134V90.4038C75.5811 92.0941 76.9554 93.4684 78.6456 93.4684H83.2424C84.9327 93.4684 86.307 92.0941 86.307 90.4038V76.6134C86.307 74.9231 84.9327 73.5489 83.2424 73.5489H78.6456Z" fill="white"/>
<path d="M80.9419 81.2101C80.5192 81.2101 80.1758 80.8667 80.1758 80.444V77.3794C80.1758 76.9567 80.5192 76.6133 80.9419 76.6133C81.3647 76.6133 81.7081 76.9567 81.7081 77.3794V80.444C81.7081 80.8667 81.3647 81.2101 80.9419 81.2101Z" fill="white"/>
<path d="M68.684 95.0011H38.0386C36.7718 95.0011 35.7402 93.9696 35.7402 92.7027C35.7402 91.4358 36.7718 90.4043 38.0386 90.4043H68.684C69.9509 90.4043 70.9824 91.4358 70.9824 92.7027C70.9824 93.9696 69.9509 95.0011 68.684 95.0011ZM38.0386 91.9366C37.6173 91.9366 37.2725 92.28 37.2725 92.7027C37.2725 93.1254 37.6173 93.4688 38.0386 93.4688H68.684C69.1054 93.4688 69.4502 93.1254 69.4502 92.7027C69.4502 92.28 69.1054 91.9366 68.684 91.9366H38.0386Z" fill="white"/>
<path d="M51.831 58.2262H1.26613C0.843386 58.2262 0.5 57.8829 0.5 57.4601V0.766135C0.5 0.343386 0.843386 0 1.26613 0H51.831C52.2538 0 52.5972 0.343386 52.5972 0.766135V57.4601C52.5972 57.8829 52.2538 58.2262 51.831 58.2262ZM2.03139 56.694H51.064V1.53227H2.03139V56.694Z" fill="white"/>
<path d="M87.0715 18.3871H62.5552C62.1324 18.3871 61.7891 18.0438 61.7891 17.621V3.83059C61.7891 3.40784 62.1324 3.06445 62.5552 3.06445H87.0715C87.4943 3.06445 87.8376 3.40784 87.8376 3.83059V17.621C87.8376 18.0438 87.4943 18.3871 87.0715 18.3871ZM63.3222 16.8549H86.3062V4.59672H63.3222V16.8549Z" fill="white"/>
<path d="M85.5414 38.3069H56.4282C56.0055 38.3069 55.6621 37.9635 55.6621 37.5407V31.4116C55.6621 30.9889 56.0055 30.6455 56.4282 30.6455H85.5414C85.9641 30.6455 86.3075 30.9889 86.3075 31.4116V37.5407C86.3075 37.9635 85.9641 38.3069 85.5414 38.3069ZM57.1935 36.7746H84.7743V32.1778H57.1935V36.7746Z" fill="#6D95FC"/>
<path d="M65.6199 53.6291H56.4263C56.0035 53.6291 55.6602 53.2857 55.6602 52.863V46.7339C55.6602 46.3112 56.0035 45.9678 56.4263 45.9678H65.6199C66.0427 45.9678 66.386 46.3112 66.386 46.7339V52.863C66.386 53.2857 66.0427 53.6291 65.6199 53.6291ZM57.1924 52.0969H64.8538V47.5H57.1924V52.0969Z" fill="#6D95FC"/>
<path d="M85.54 53.6291H70.2173C69.7946 53.6291 69.4512 53.2857 69.4512 52.863V46.7339C69.4512 46.3112 69.7946 45.9678 70.2173 45.9678H85.54C85.9627 45.9678 86.3061 46.3112 86.3061 46.7339V52.863C86.3061 53.2857 85.9627 53.6291 85.54 53.6291ZM70.9834 52.0969H84.7739V47.5H70.9834V52.0969Z" fill="#6D95FC"/>
<path d="M85.5414 62.8233H21.1861C20.7633 62.8233 20.4199 62.4799 20.4199 62.0572C20.4199 61.6344 20.7633 61.291 21.1861 61.291H85.5414C85.9641 61.291 86.3075 61.6344 86.3075 62.0572C86.3075 62.4799 85.9641 62.8233 85.5414 62.8233Z" fill="#6D95FC"/>
<path d="M85.5414 58.2266H56.4282C56.0055 58.2266 55.6621 57.8832 55.6621 57.4605C55.6621 57.0377 56.0055 56.6943 56.4282 56.6943H85.5414C85.9641 56.6943 86.3075 57.0377 86.3075 57.4605C86.3075 57.8832 85.9641 58.2266 85.5414 58.2266Z" fill="#6D95FC"/>
<path d="M85.5414 42.9034H56.4282C56.0055 42.9034 55.6621 42.56 55.6621 42.1372C55.6621 41.7145 56.0055 41.3711 56.4282 41.3711H85.5414C85.9641 41.3711 86.3075 41.7145 86.3075 42.1372C86.3075 42.56 85.9641 42.9034 85.5414 42.9034Z" fill="#6D95FC"/>
<path d="M10.4576 13.7903C8.34467 13.7903 6.62695 12.0712 6.62695 9.95958C6.62695 7.84792 8.3446 6.12891 10.4576 6.12891C12.5707 6.12891 14.2883 7.84792 14.2883 9.95958C14.2883 12.0712 12.5707 13.7903 10.4576 13.7903ZM10.4576 7.66118C9.19076 7.66118 8.15922 8.69272 8.15922 9.95958C8.15922 11.2264 9.19076 12.258 10.4576 12.258C11.7245 12.258 12.756 11.2264 12.756 9.95958C12.756 8.69272 11.7245 7.66118 10.4576 7.66118Z" fill="#6D95FC"/>
<path d="M13.5222 18.3868H7.39309C6.97034 18.3868 6.62695 18.0434 6.62695 17.6206C6.62695 17.1979 6.97034 16.8545 7.39309 16.8545H13.5222C13.9449 16.8545 14.2883 17.1979 14.2883 17.6206C14.2883 18.0434 13.9449 18.3868 13.5222 18.3868Z" fill="#6D95FC"/>
<path d="M30.3787 18.3868H22.7173C22.2946 18.3868 21.9512 18.0434 21.9512 17.6206C21.9512 17.1979 22.2946 16.8545 22.7173 16.8545H30.3787C30.8014 16.8545 31.1448 17.1979 31.1448 17.6206C31.1448 18.0434 30.8014 18.3868 30.3787 18.3868Z" fill="#6D95FC"/>
<path d="M42.6373 13.7903C40.5244 13.7903 38.8066 12.0712 38.8066 9.95958C38.8066 7.84792 40.5243 6.12891 42.6373 6.12891C44.7503 6.12891 46.468 7.84792 46.468 9.95958C46.468 12.0712 44.7503 13.7903 42.6373 13.7903ZM42.6373 7.66118C41.3705 7.66118 40.3389 8.69272 40.3389 9.95958C40.3389 11.2264 41.3705 12.258 42.6373 12.258C43.9042 12.258 44.9357 11.2264 44.9357 9.95958C44.9357 8.69272 43.9042 7.66118 42.6373 7.66118Z" fill="#6D95FC"/>
<path d="M45.7019 18.3868H39.5728C39.15 18.3868 38.8066 18.0434 38.8066 17.6206C38.8066 17.1979 39.15 16.8545 39.5728 16.8545H45.7019C46.1246 16.8545 46.468 17.1979 46.468 17.6206C46.468 18.0434 46.1246 18.3868 45.7019 18.3868Z" fill="#6D95FC"/>
<path d="M30.3787 13.7903H22.7173C22.2946 13.7903 21.9512 13.4469 21.9512 13.0241V6.89504C21.9512 6.47229 22.2946 6.12891 22.7173 6.12891H30.3787C30.8014 6.12891 31.1448 6.47229 31.1448 6.89504V13.0241C31.1448 13.4469 30.8014 13.7903 30.3787 13.7903ZM23.4834 12.258H29.6125V7.66118H23.4834V12.258Z" fill="#6D95FC"/>
<path d="M45.7018 33.71H7.39504C6.97229 33.71 6.62891 33.3666 6.62891 32.9439C6.62891 32.5211 6.97229 32.1777 7.39504 32.1777H45.7018C46.1245 32.1777 46.4679 32.5211 46.4679 32.9439C46.4679 33.3666 46.1245 33.71 45.7018 33.71Z" fill="#6D95FC"/>
<path d="M45.7018 52.0967H7.39504C6.97229 52.0967 6.62891 51.7533 6.62891 51.3306C6.62891 50.9078 6.97229 50.5645 7.39504 50.5645H45.7018C46.1245 50.5645 46.4679 50.9078 46.4679 51.3306C46.4679 51.7533 46.1245 52.0967 45.7018 52.0967Z" fill="#6D95FC"/>
<path d="M79.4127 9.1934H76.3482C75.9254 9.1934 75.582 8.85002 75.582 8.42727C75.582 8.00452 75.9254 7.66113 76.3482 7.66113H79.4127C79.8355 7.66113 80.1788 8.00452 80.1788 8.42727C80.1788 8.85002 79.8355 9.1934 79.4127 9.1934Z" fill="white"/>
<path d="M82.4772 13.7901H76.3482C75.9254 13.7901 75.582 13.4467 75.582 13.0239C75.582 12.6012 75.9254 12.2578 76.3482 12.2578H82.4772C82.9 12.2578 83.2434 12.6012 83.2434 13.0239C83.2434 13.4467 82.9 13.7901 82.4772 13.7901Z" fill="white"/>
<path d="M73.2819 13.7902H67.1529C66.7301 13.7902 66.3867 13.4468 66.3867 13.0241V8.42727C66.3867 8.00452 66.7301 7.66113 67.1529 7.66113H73.2819C73.7047 7.66113 74.0481 8.00452 74.0481 8.42727V13.0241C74.0481 13.4468 73.7047 13.7902 73.2819 13.7902ZM67.919 12.2579H72.5158V9.1934H67.919V12.2579Z" fill="white"/>
<path d="M42.6365 67.42H34.9751C34.5524 67.42 34.209 67.0766 34.209 66.6538C34.209 66.2311 34.5524 65.8877 34.9751 65.8877H42.6365C43.0592 65.8877 43.4026 66.2311 43.4026 66.6538C43.4026 67.0766 43.0592 67.42 42.6365 67.42Z" fill="#6D95FC"/>
</svg>
