<svg width="101" height="97" viewBox="0 0 101 97" fill="none" xmlns="http://www.w3.org/2000/svg">
<path d="M48.7699 31.1867C48.3397 31.1867 47.9095 31.0783 47.5175 30.8614C47.5175 30.8614 47.5175 30.8614 47.5175 30.8614L48.7699 31.1867ZM48.7699 31.1867C49.2002 31.1867 49.6304 31.0781 50.0224 30.8612L53.6579 28.8506C54.4423 28.4169 54.9113 27.6394 54.9113 26.7707C54.9113 25.9019 54.4423 25.1245 53.6579 24.6907L50.0224 22.6801C50.0224 22.6801 50.0224 22.6801 50.0224 22.6801L48.7699 31.1867ZM48.5967 24.4747L48.5968 24.4747C48.6354 24.4534 48.6966 24.4281 48.771 24.4281C48.8226 24.4281 48.8809 24.4401 48.9432 24.4749L48.9433 24.4749L52.5789 26.4855L52.5789 26.4855C52.7293 26.5686 52.7514 26.6997 52.7514 26.7711C52.7514 26.8424 52.7293 26.9735 52.5789 27.0566L52.5789 27.0566L48.9431 29.0672L48.9431 29.0672C48.7929 29.1505 48.6623 29.1032 48.5967 29.0672L48.5967 29.0671C48.5313 29.0312 48.4244 28.947 48.4244 28.7816V24.7603C48.4244 24.5951 48.5313 24.5109 48.5967 24.4747Z" fill="#6D95FC" stroke="white" stroke-width="0.05"/>
<path d="M39.9164 26.7716C39.9164 32.4098 44.7047 36.9949 50.588 36.9949C56.4712 36.9949 61.2595 32.4098 61.2595 26.7716C61.2595 21.1334 56.4712 16.5482 50.588 16.5482C44.7047 16.5482 39.9164 21.1334 39.9164 26.7716ZM42.0765 26.7716C42.0765 22.2775 45.8938 18.6195 50.588 18.6195C55.2823 18.6195 59.0993 22.2775 59.0993 26.7716C59.0993 31.2656 55.2823 34.9237 50.588 34.9237C45.8938 34.9237 42.0765 31.2656 42.0765 26.7716Z" fill="#6D95FC" stroke="white" stroke-width="0.05"/>
<path d="M17.8812 52.5676H83.2951C83.8907 52.5676 84.3751 52.105 84.3751 51.5319V2.01064C84.3751 1.43776 83.8907 0.975 83.2951 0.975H17.8812C17.2858 0.975 16.8012 1.43775 16.8012 2.01064V51.5319C16.8012 52.105 17.2858 52.5676 17.8812 52.5676ZM82.215 3.04628V50.4963H18.9613V3.04628H82.215Z" fill="#6D95FC" stroke="white" stroke-width="0.05"/>
<path d="M24.2113 14.1629H32.6518C33.2472 14.1629 33.7319 13.7002 33.7319 13.1273V8.07411C33.7319 7.50123 33.2472 7.03848 32.6518 7.03848H24.2113C23.6159 7.03848 23.1312 7.50123 23.1312 8.07411V13.1273C23.1312 13.7002 23.6159 14.1629 24.2113 14.1629ZM31.5717 9.10975V12.0917H25.2914V9.10975H31.5717Z" fill="#6D95FC" stroke="white" stroke-width="0.05"/>
<path d="M38.9828 14.1629H47.4233C48.0187 14.1629 48.5034 13.7002 48.5034 13.1273V8.07411C48.5034 7.50123 48.0187 7.03848 47.4233 7.03848H38.9828C38.3874 7.03848 37.9027 7.50123 37.9027 8.07411V13.1273C37.9027 13.7002 38.3874 14.1629 38.9828 14.1629ZM46.3432 9.10975V12.0917H40.0629V9.10975H46.3432Z" fill="#6D95FC" stroke="white" stroke-width="0.05"/>
<path d="M8.31517 79.8556H92.8607C96.9069 79.8556 100.201 76.7019 100.201 72.8234V66.6923C100.201 66.1192 99.7164 65.6566 99.1208 65.6566H2.05506C1.45968 65.6566 0.975 66.1192 0.975 66.6923V72.8234C0.975 76.7019 4.26867 79.8556 8.31517 79.8556ZM3.13512 72.8234V67.7279H98.0407V72.8234C98.0407 75.558 95.7181 77.7843 92.8609 77.7843H8.31517C5.45776 77.7843 3.13512 75.558 3.13512 72.8234Z" fill="white" stroke="#6D95FC" stroke-width="0.05"/>
<path d="M2.05506 67.7274H99.1208C99.7164 67.7274 100.201 67.2648 100.201 66.6918V21.5162C100.201 16.8761 96.2602 13.1029 91.4188 13.1029H83.2948C82.6992 13.1029 82.2148 13.5657 82.2148 14.1386C82.2148 14.7114 82.6992 15.1742 83.2948 15.1742H91.4188C95.0711 15.1742 98.0407 18.0203 98.0407 21.5162V65.6561H3.13512V21.5162C3.13512 18.0203 6.10472 15.1742 9.75701 15.1742H17.881C18.4764 15.1742 18.9611 14.7115 18.9611 14.1386C18.9611 13.5657 18.4764 13.1029 17.881 13.1029H9.75701C4.91564 13.1029 0.975 16.8761 0.975 21.5162V66.6918C0.975 67.2648 1.45968 67.7274 2.05506 67.7274Z" fill="white" stroke="#6D95FC" stroke-width="0.05"/>
<path d="M53.7523 14.1629H62.1928C62.7884 14.1629 63.2729 13.7002 63.2729 13.1273V8.07411C63.2729 7.50123 62.7884 7.03848 62.1928 7.03848H53.7523C53.1567 7.03848 52.6723 7.50123 52.6723 8.07411V13.1273C52.6723 13.7002 53.1567 14.1629 53.7523 14.1629ZM61.1128 9.10975V12.0917H54.8324V9.10975H61.1128Z" fill="#6D95FC" stroke="white" stroke-width="0.05"/>
<path d="M76.9643 14.1379H68.5238C67.941 14.1379 67.4688 13.6854 67.4688 13.1273V8.07411C67.4688 7.51604 67.941 7.06348 68.5238 7.06348H76.9643C77.5471 7.06348 78.0194 7.51604 78.0194 8.07411V13.1273C78.0194 13.6854 77.5471 14.1379 76.9643 14.1379ZM69.5789 12.1167H75.9092V9.08475H69.5789V12.1167Z" fill="#6D95FC" stroke="#6D95FC" stroke-width="0.05"/>
<path d="M32.6518 46.4788H24.2113C23.6287 46.4788 23.1562 46.0262 23.1562 45.4681V40.4149C23.1562 39.8569 23.6287 39.4043 24.2113 39.4043H32.6518C33.2344 39.4043 33.7069 39.8569 33.7069 40.4149V45.4681C33.7069 46.0262 33.2344 46.4788 32.6518 46.4788ZM25.2664 44.4575H31.5967V41.4256H25.2664V44.4575Z" fill="#6D95FC" stroke="#6D95FC" stroke-width="0.05"/>
<path d="M47.4233 46.4788H38.9828C38.4002 46.4788 37.9277 46.0262 37.9277 45.4681V40.4149C37.9277 39.8569 38.4002 39.4043 38.9828 39.4043H47.4233C48.0059 39.4043 48.4784 39.8569 48.4784 40.4149V45.4681C48.4784 46.0262 48.0059 46.4788 47.4233 46.4788ZM40.0379 44.4575H46.3682V41.4256H40.0379V44.4575Z" fill="#6D95FC" stroke="#6D95FC" stroke-width="0.05"/>
<path d="M62.1928 46.4788H53.7523C53.1695 46.4788 52.6973 46.0262 52.6973 45.4681V40.4149C52.6973 39.8569 53.1695 39.4043 53.7523 39.4043H62.1928C62.7756 39.4043 63.2479 39.8569 63.2479 40.4149V45.4681C63.2479 46.0262 62.7756 46.4788 62.1928 46.4788ZM54.8074 44.4575H61.1378V41.4256H54.8074V44.4575Z" fill="#6D95FC" stroke="#6D95FC" stroke-width="0.05"/>
<path d="M76.9643 46.4788H68.5238C67.941 46.4788 67.4688 46.0262 67.4688 45.4681V40.4149C67.4688 39.8569 67.941 39.4043 68.5238 39.4043H76.9643C77.5471 39.4043 78.0194 39.8569 78.0194 40.4149V45.4681C78.0194 46.0262 77.5471 46.4788 76.9643 46.4788ZM69.5789 44.4575H75.9092V41.4256H69.5789V44.4575Z" fill="#6D95FC" stroke="#6D95FC" stroke-width="0.05"/>
<path d="M38.9828 91.9825H62.1942C62.7898 91.9825 63.2742 91.52 63.2742 90.9469V78.8192C63.2742 78.2461 62.7898 77.7836 62.1942 77.7836H38.9828C38.3874 77.7836 37.9027 78.2461 37.9027 78.8192V90.9469C37.9027 91.52 38.3874 91.9825 38.9828 91.9825ZM61.1141 79.8549V89.9113H40.0629V79.8549H61.1141Z" fill="white" stroke="#6D95FC" stroke-width="0.05"/>
<path d="M44.2582 91.9825H56.9189C57.5145 91.9825 57.999 91.52 57.999 90.9469V78.8192C57.999 78.2461 57.5145 77.7836 56.9189 77.7836H44.2582C43.6628 77.7836 43.1781 78.2461 43.1781 78.8192V90.9469C43.1781 91.52 43.6628 91.9825 44.2582 91.9825ZM55.8389 79.8549V89.9113H45.3382V79.8549H55.8389Z" fill="white" stroke="#6D95FC" stroke-width="0.05"/>
<path d="M35.8175 96.0254H65.3593C67.1173 96.0254 68.5494 94.655 68.5494 92.9684C68.5494 91.2818 67.1173 89.9115 65.3593 89.9115H35.8175C34.0595 89.9115 32.6273 91.2818 32.6273 92.9684C32.6273 94.655 34.0595 96.0254 35.8175 96.0254ZM34.7875 92.9684C34.7875 92.426 35.2486 91.9828 35.8175 91.9828H65.3593C65.9282 91.9828 66.3893 92.426 66.3893 92.9684C66.3893 93.5109 65.9282 93.9541 65.3593 93.9541H35.8175C35.2486 93.9541 34.7875 93.5109 34.7875 92.9684Z" fill="white" stroke="#6D95FC" stroke-width="0.05"/>
</svg>
