<svg width="90" height="94" viewBox="0 0 90 94" fill="none" xmlns="http://www.w3.org/2000/svg">
<g clip-path="url(#clip0_76_650)">
<path d="M18.3574 74.2906C18.3574 68.6954 22.7134 64.1777 28.0187 64.1777C33.324 64.1777 37.68 68.6954 37.68 74.2906C37.68 79.8859 33.324 84.4035 28.0187 84.4035C22.7134 84.4035 18.3574 79.8859 18.3574 74.2906ZM20.2606 74.2906C20.2606 78.7262 23.72 82.3713 28.0187 82.3713C32.3174 82.3713 35.7768 78.7262 35.7768 74.2906C35.7768 69.855 32.3174 66.21 28.0187 66.21C23.72 66.21 20.2606 69.855 20.2606 74.2906Z" fill="#6D95FC" stroke="black"/>
<path d="M24.1641 74.2906C24.1641 72.0382 25.9143 70.2422 28.0189 70.2422C30.1235 70.2422 31.8737 72.0382 31.8737 74.2906C31.8737 76.5429 30.1235 78.339 28.0189 78.339C25.9143 78.339 24.1641 76.5429 24.1641 74.2906ZM26.0673 74.2906C26.0673 75.3826 26.9215 76.3067 28.0189 76.3067C29.1163 76.3067 29.9705 75.3826 29.9705 74.2906C29.9705 73.1986 29.1163 72.2744 28.0189 72.2744C26.9215 72.2744 26.0673 73.1986 26.0673 74.2906Z" fill="#6D95FC" stroke="black"/>
<mask id="path-4-inside-1_76_650" fill="white">
<path d="M88.137 70.8214L77.6374 66.7097H75.9213V54.0501C79.2989 52.7979 81.7278 49.4367 81.7278 45.4839V43.1643C81.7278 41.3342 82.545 39.5952 83.9694 38.3911C88.0799 34.9162 90.4375 29.7662 90.4375 24.2581C90.4375 19.0883 88.3196 14.144 84.6265 10.6949C82.1659 8.39502 79.137 6.92152 75.9213 6.34955V4.54839C75.9213 2.04062 73.9676 0 71.5665 0H4.79234C2.39129 0 0.4375 2.04062 0.4375 4.54839V71.258C0.4375 73.7658 2.39129 75.8064 4.79234 75.8064H9.20806C9.47506 77.5012 10.6175 78.9253 12.2188 79.4742C12.6588 79.6259 12.9997 79.9534 13.1578 80.3792C13.233 80.5795 13.3088 80.7765 13.3918 80.9721C13.5628 81.3843 13.5427 81.8683 13.3367 82.296C12.4644 84.0972 12.7969 86.265 14.1629 87.6952L15.1862 88.7653C16.5523 90.1907 18.6279 90.5378 20.3536 89.6262C20.7632 89.411 21.2272 89.39 21.6238 89.57C21.8097 89.6546 21.9983 89.7338 22.1914 89.8123C22.5965 89.9775 22.9114 90.3355 23.0566 90.7931C23.6573 92.7112 25.3617 94 27.2948 94H28.7405C30.6743 94 32.378 92.7099 32.9808 90.7931C33.1259 90.3335 33.4396 89.9775 33.8472 89.8123C34.039 89.7338 34.2276 89.6546 34.4149 89.568C34.8115 89.3907 35.2716 89.4103 35.6824 89.6255C37.407 90.5352 39.4845 90.188 40.8518 88.7625L41.8764 87.6938C43.2412 86.2656 43.5735 84.0956 42.7007 82.2967C42.6353 82.16 42.621 82.0145 42.5931 81.8723H77.6376L88.1371 77.7592C89.5123 77.2177 90.437 75.8248 90.437 74.2903C90.437 72.7558 89.5122 71.3629 88.1364 70.8214L88.137 70.8214ZM46.8282 72.7742C46.6338 71.5416 45.9747 70.456 45.0136 69.7419H75.9205V72.7742H46.8282ZM46.8282 75.8064H75.9218V78.8387H45.0149C45.9773 78.1246 46.6363 77.0389 46.8295 75.8064H46.8282ZM73.0186 51.5484C69.8166 51.5484 67.2122 48.8282 67.2122 45.4839H78.8251C78.8251 48.8282 76.2206 51.5484 73.0186 51.5484ZM72.053 28.8064H73.9836L73.1113 42.4516H72.9241L72.053 28.8064ZM87.5347 24.2581C87.5347 28.8458 85.5691 33.1382 82.1437 36.0338C80.2184 37.6609 79.0545 39.9697 78.8638 42.4516H76.0215L76.8925 28.8064H78.8249C81.2259 28.8064 83.1797 26.7658 83.1797 24.2581C83.1797 21.7503 81.2259 19.7097 78.8249 19.7097H78.6376C76.3526 19.7097 74.4422 21.5744 74.293 23.9562L74.177 25.7742H71.8602L71.7442 23.9576C71.5945 21.5744 69.6841 19.7097 67.3992 19.7097H67.2119C64.8109 19.7097 62.8571 21.7503 62.8571 24.2581C62.8571 26.7658 64.8109 28.8064 67.2119 28.8064H69.1438L70.0148 42.4516H67.1711C66.9754 39.9804 65.7895 37.6528 63.8311 35.979C59.8074 32.5406 57.8808 27.2525 58.6824 21.835C59.6551 15.2521 64.9781 9.9361 71.342 9.19502C71.9096 9.12869 72.4767 9.09687 73.0386 9.09687C76.6184 9.09687 79.9961 10.4357 82.6919 12.9543C85.7695 15.8288 87.5347 19.9493 87.5347 24.2581ZM77.0876 25.7742L77.1906 24.1565C77.2398 23.3633 77.8769 22.7419 78.6377 22.7419H78.825C79.6259 22.7419 80.2766 23.4215 80.2766 24.2581C80.2766 25.0946 79.6259 25.7742 78.825 25.7742H77.0876ZM68.9494 25.7742H67.212C66.411 25.7742 65.7603 25.0946 65.7603 24.2581C65.7603 23.4215 66.411 22.7419 67.212 22.7419H67.3992C68.16 22.7419 68.7971 23.3633 68.8463 24.1579L68.9494 25.7742ZM38.1802 24.2581H33.8254C32.3388 24.2581 31.0252 25.0432 30.2398 26.2337C29.015 25.0174 27.3683 24.2581 25.5498 24.2581H25.1533C23.9168 24.2581 22.7029 24.608 21.6415 25.274L14.9543 29.4644V32.5677L21.285 37.856C22.4897 38.8645 24.0049 39.4195 25.5497 39.4195C27.3688 39.4195 29.0149 38.66 30.2397 37.4438C31.0251 38.6344 32.3386 39.4195 33.8253 39.4195H38.1801V42.4517H9.14785V21.2259H38.1801L38.1802 24.2581ZM25.5498 36.3871C24.6627 36.3871 23.7917 36.069 23.0995 35.4882L17.9054 31.1504L23.1339 27.8738C23.745 27.4921 24.4423 27.2904 25.1519 27.2904H25.5485C27.7109 27.2904 29.4705 29.1279 29.4705 31.3853V32.2923C29.4705 34.5495 27.7112 36.3871 25.5498 36.3871ZM33.8254 36.3871C33.0244 36.3871 32.3738 35.7075 32.3738 34.871V28.8064C32.3738 27.9699 33.0244 27.2903 33.8254 27.2903H55.8766C56.4184 30.6698 57.8447 33.8111 60.07 36.3871H33.8254ZM4.79312 3.03226H71.5673C72.3683 3.03226 73.0189 3.71181 73.0189 4.54839V6.07534C72.354 6.07399 71.6865 6.10445 71.0183 6.18161C66.7509 6.67841 62.8737 8.89366 60.0775 12.129H38.1805V6.06448H29.4709V12.129H26.5676V6.06448H17.858V12.129H14.9547V6.06448H6.24506V12.129H3.34184V4.54835C3.34184 3.71177 3.99247 3.03222 4.79345 3.03222L4.79312 3.03226ZM35.277 12.129H32.3738V9.09677H35.277V12.129ZM23.6641 12.129H20.7609V9.09677H23.6641V12.129ZM12.0512 12.129H9.14795V9.09677H12.0512V12.129ZM3.3415 71.258V15.1613H57.9603C56.8949 17.0565 56.1432 19.15 55.8146 21.3746C55.6707 22.3432 55.6247 23.3051 55.6247 24.2581H41.084V18.1935H6.24531V45.4839H41.084V39.4193H63.0158C63.8459 40.5199 64.3106 41.8282 64.3106 43.1731V45.4839C64.3106 50.5006 68.217 54.5806 73.0203 54.5806V66.7097H42.5945C42.6223 66.5668 42.6366 66.4213 42.702 66.2866C43.5743 64.4855 43.2419 62.3177 41.8758 60.8875L40.8525 59.8187C39.4877 58.3906 37.4095 58.0399 35.6851 58.9558C35.2775 59.1723 34.8128 59.194 34.415 59.0119C34.229 58.9273 34.0404 58.8481 33.8473 58.7696C33.4422 58.6045 33.1273 58.2464 32.9821 57.7889C32.3808 55.8694 30.6765 54.5806 28.7433 54.5806H27.2975C25.3638 54.5806 23.66 55.8706 23.0573 57.7875C22.9121 58.2471 22.5985 58.6031 22.1909 58.7682C21.999 58.8468 21.8104 58.926 21.6232 59.0126C21.2266 59.1899 20.7665 59.1703 20.3556 58.9551C18.6311 58.0454 16.5535 58.3926 15.1862 59.818L14.1616 60.8868C12.7969 62.3149 12.4645 64.4849 13.3373 66.2839C13.5447 66.713 13.5635 67.1962 13.3911 67.6105C13.3101 67.8047 13.2343 68.0017 13.1591 68.2034C13.001 68.6264 12.6582 68.9553 12.2201 69.107C10.6182 69.6552 9.47565 71.0793 9.20988 72.7741H4.79415C3.99318 72.7741 3.34254 72.0945 3.34254 71.2579L3.3415 71.258ZM40.1743 79.2765C40.1134 79.4403 40.0479 79.6028 39.9825 79.7618C39.466 81.0039 39.512 82.4259 40.1089 83.6611C40.4134 84.2906 40.2974 85.0487 39.8211 85.5476L38.7979 86.615C38.3203 87.1138 37.5957 87.2349 36.9904 86.9168C35.8103 86.2934 34.4475 86.2454 33.2597 86.7835C33.1061 86.8532 32.9506 86.9216 32.795 86.9852C31.5774 87.4793 30.641 88.5243 30.2243 89.8476C30.013 90.5177 29.4174 90.9678 28.7415 90.9678H27.2958C26.6192 90.9678 26.0243 90.5177 25.8137 89.8456C25.397 88.5237 24.4593 87.4808 23.2429 86.9859C23.0861 86.9223 22.9306 86.8539 22.7783 86.7856C22.2294 86.5372 21.6449 86.4127 21.0564 86.4127C20.3695 86.4127 19.6819 86.5812 19.0429 86.9176C18.4402 87.2357 17.7144 87.1145 17.2368 86.6171L16.2148 85.5483C15.7372 85.0495 15.6212 84.2914 15.9258 83.6605C16.5226 82.4266 16.5686 81.0046 16.0534 79.764C15.9867 79.6036 15.9212 79.4411 15.8603 79.2787C15.3872 78.0069 14.3867 77.0289 13.1197 76.5937C12.4813 76.3737 12.0504 75.7517 12.0504 75.0457V73.5357C12.0504 72.8291 12.4814 72.2077 13.1249 71.9878C14.3905 71.5525 15.389 70.5731 15.8629 69.3027C15.9238 69.1389 15.9892 68.9765 16.0547 68.8174C16.5712 67.5754 16.5251 66.1534 15.9283 64.9181C15.6237 64.2887 15.7397 63.5306 16.216 63.0317L17.2393 61.963C17.7169 61.4655 18.4427 61.3457 19.0468 61.6624C20.2281 62.2858 21.593 62.3359 22.7775 61.7958C22.9311 61.7261 23.0866 61.6577 23.2421 61.5941C24.4598 61.1 25.3962 60.0549 25.8129 58.7316C26.0235 58.0629 26.6191 57.6128 27.295 57.6128H28.7407C29.4173 57.6128 30.0122 58.0629 30.2228 58.735C30.6395 60.0569 31.5772 61.0998 32.7936 61.5947C32.9504 61.6583 33.1059 61.7267 33.2582 61.795C34.4487 62.3345 35.8089 62.2864 36.9916 61.6631C37.5969 61.3429 38.3214 61.4674 38.7977 61.9636L39.8197 63.0323C40.2973 63.5312 40.4133 64.2892 40.1087 64.9201C39.5119 66.154 39.4659 67.576 39.9811 68.8167C40.0478 68.9771 40.1133 69.1395 40.1742 69.302C40.6473 70.5737 41.6478 71.5517 42.9148 71.987C43.5551 72.2069 43.9861 72.829 43.9861 73.5349V75.0449C43.9861 75.7516 43.5551 76.3729 42.9116 76.5929C41.646 77.0281 40.6474 78.0061 40.1743 79.2765ZM87.117 74.9196L78.8253 78.1671V70.4139L87.117 73.6599C87.3665 73.7581 87.5349 74.0112 87.5349 74.2901C87.5349 74.5689 87.3665 74.8222 87.117 74.9196Z"/>
</mask>
<path d="M88.137 70.8214L77.6374 66.7097H75.9213V54.0501C79.2989 52.7979 81.7278 49.4367 81.7278 45.4839V43.1643C81.7278 41.3342 82.545 39.5952 83.9694 38.3911C88.0799 34.9162 90.4375 29.7662 90.4375 24.2581C90.4375 19.0883 88.3196 14.144 84.6265 10.6949C82.1659 8.39502 79.137 6.92152 75.9213 6.34955V4.54839C75.9213 2.04062 73.9676 0 71.5665 0H4.79234C2.39129 0 0.4375 2.04062 0.4375 4.54839V71.258C0.4375 73.7658 2.39129 75.8064 4.79234 75.8064H9.20806C9.47506 77.5012 10.6175 78.9253 12.2188 79.4742C12.6588 79.6259 12.9997 79.9534 13.1578 80.3792C13.233 80.5795 13.3088 80.7765 13.3918 80.9721C13.5628 81.3843 13.5427 81.8683 13.3367 82.296C12.4644 84.0972 12.7969 86.265 14.1629 87.6952L15.1862 88.7653C16.5523 90.1907 18.6279 90.5378 20.3536 89.6262C20.7632 89.411 21.2272 89.39 21.6238 89.57C21.8097 89.6546 21.9983 89.7338 22.1914 89.8123C22.5965 89.9775 22.9114 90.3355 23.0566 90.7931C23.6573 92.7112 25.3617 94 27.2948 94H28.7405C30.6743 94 32.378 92.7099 32.9808 90.7931C33.1259 90.3335 33.4396 89.9775 33.8472 89.8123C34.039 89.7338 34.2276 89.6546 34.4149 89.568C34.8115 89.3907 35.2716 89.4103 35.6824 89.6255C37.407 90.5352 39.4845 90.188 40.8518 88.7625L41.8764 87.6938C43.2412 86.2656 43.5735 84.0956 42.7007 82.2967C42.6353 82.16 42.621 82.0145 42.5931 81.8723H77.6376L88.1371 77.7592C89.5123 77.2177 90.437 75.8248 90.437 74.2903C90.437 72.7558 89.5122 71.3629 88.1364 70.8214L88.137 70.8214ZM46.8282 72.7742C46.6338 71.5416 45.9747 70.456 45.0136 69.7419H75.9205V72.7742H46.8282ZM46.8282 75.8064H75.9218V78.8387H45.0149C45.9773 78.1246 46.6363 77.0389 46.8295 75.8064H46.8282ZM73.0186 51.5484C69.8166 51.5484 67.2122 48.8282 67.2122 45.4839H78.8251C78.8251 48.8282 76.2206 51.5484 73.0186 51.5484ZM72.053 28.8064H73.9836L73.1113 42.4516H72.9241L72.053 28.8064ZM87.5347 24.2581C87.5347 28.8458 85.5691 33.1382 82.1437 36.0338C80.2184 37.6609 79.0545 39.9697 78.8638 42.4516H76.0215L76.8925 28.8064H78.8249C81.2259 28.8064 83.1797 26.7658 83.1797 24.2581C83.1797 21.7503 81.2259 19.7097 78.8249 19.7097H78.6376C76.3526 19.7097 74.4422 21.5744 74.293 23.9562L74.177 25.7742H71.8602L71.7442 23.9576C71.5945 21.5744 69.6841 19.7097 67.3992 19.7097H67.2119C64.8109 19.7097 62.8571 21.7503 62.8571 24.2581C62.8571 26.7658 64.8109 28.8064 67.2119 28.8064H69.1438L70.0148 42.4516H67.1711C66.9754 39.9804 65.7895 37.6528 63.8311 35.979C59.8074 32.5406 57.8808 27.2525 58.6824 21.835C59.6551 15.2521 64.9781 9.9361 71.342 9.19502C71.9096 9.12869 72.4767 9.09687 73.0386 9.09687C76.6184 9.09687 79.9961 10.4357 82.6919 12.9543C85.7695 15.8288 87.5347 19.9493 87.5347 24.2581ZM77.0876 25.7742L77.1906 24.1565C77.2398 23.3633 77.8769 22.7419 78.6377 22.7419H78.825C79.6259 22.7419 80.2766 23.4215 80.2766 24.2581C80.2766 25.0946 79.6259 25.7742 78.825 25.7742H77.0876ZM68.9494 25.7742H67.212C66.411 25.7742 65.7603 25.0946 65.7603 24.2581C65.7603 23.4215 66.411 22.7419 67.212 22.7419H67.3992C68.16 22.7419 68.7971 23.3633 68.8463 24.1579L68.9494 25.7742ZM38.1802 24.2581H33.8254C32.3388 24.2581 31.0252 25.0432 30.2398 26.2337C29.015 25.0174 27.3683 24.2581 25.5498 24.2581H25.1533C23.9168 24.2581 22.7029 24.608 21.6415 25.274L14.9543 29.4644V32.5677L21.285 37.856C22.4897 38.8645 24.0049 39.4195 25.5497 39.4195C27.3688 39.4195 29.0149 38.66 30.2397 37.4438C31.0251 38.6344 32.3386 39.4195 33.8253 39.4195H38.1801V42.4517H9.14785V21.2259H38.1801L38.1802 24.2581ZM25.5498 36.3871C24.6627 36.3871 23.7917 36.069 23.0995 35.4882L17.9054 31.1504L23.1339 27.8738C23.745 27.4921 24.4423 27.2904 25.1519 27.2904H25.5485C27.7109 27.2904 29.4705 29.1279 29.4705 31.3853V32.2923C29.4705 34.5495 27.7112 36.3871 25.5498 36.3871ZM33.8254 36.3871C33.0244 36.3871 32.3738 35.7075 32.3738 34.871V28.8064C32.3738 27.9699 33.0244 27.2903 33.8254 27.2903H55.8766C56.4184 30.6698 57.8447 33.8111 60.07 36.3871H33.8254ZM4.79312 3.03226H71.5673C72.3683 3.03226 73.0189 3.71181 73.0189 4.54839V6.07534C72.354 6.07399 71.6865 6.10445 71.0183 6.18161C66.7509 6.67841 62.8737 8.89366 60.0775 12.129H38.1805V6.06448H29.4709V12.129H26.5676V6.06448H17.858V12.129H14.9547V6.06448H6.24506V12.129H3.34184V4.54835C3.34184 3.71177 3.99247 3.03222 4.79345 3.03222L4.79312 3.03226ZM35.277 12.129H32.3738V9.09677H35.277V12.129ZM23.6641 12.129H20.7609V9.09677H23.6641V12.129ZM12.0512 12.129H9.14795V9.09677H12.0512V12.129ZM3.3415 71.258V15.1613H57.9603C56.8949 17.0565 56.1432 19.15 55.8146 21.3746C55.6707 22.3432 55.6247 23.3051 55.6247 24.2581H41.084V18.1935H6.24531V45.4839H41.084V39.4193H63.0158C63.8459 40.5199 64.3106 41.8282 64.3106 43.1731V45.4839C64.3106 50.5006 68.217 54.5806 73.0203 54.5806V66.7097H42.5945C42.6223 66.5668 42.6366 66.4213 42.702 66.2866C43.5743 64.4855 43.2419 62.3177 41.8758 60.8875L40.8525 59.8187C39.4877 58.3906 37.4095 58.0399 35.6851 58.9558C35.2775 59.1723 34.8128 59.194 34.415 59.0119C34.229 58.9273 34.0404 58.8481 33.8473 58.7696C33.4422 58.6045 33.1273 58.2464 32.9821 57.7889C32.3808 55.8694 30.6765 54.5806 28.7433 54.5806H27.2975C25.3638 54.5806 23.66 55.8706 23.0573 57.7875C22.9121 58.2471 22.5985 58.6031 22.1909 58.7682C21.999 58.8468 21.8104 58.926 21.6232 59.0126C21.2266 59.1899 20.7665 59.1703 20.3556 58.9551C18.6311 58.0454 16.5535 58.3926 15.1862 59.818L14.1616 60.8868C12.7969 62.3149 12.4645 64.4849 13.3373 66.2839C13.5447 66.713 13.5635 67.1962 13.3911 67.6105C13.3101 67.8047 13.2343 68.0017 13.1591 68.2034C13.001 68.6264 12.6582 68.9553 12.2201 69.107C10.6182 69.6552 9.47565 71.0793 9.20988 72.7741H4.79415C3.99318 72.7741 3.34254 72.0945 3.34254 71.2579L3.3415 71.258ZM40.1743 79.2765C40.1134 79.4403 40.0479 79.6028 39.9825 79.7618C39.466 81.0039 39.512 82.4259 40.1089 83.6611C40.4134 84.2906 40.2974 85.0487 39.8211 85.5476L38.7979 86.615C38.3203 87.1138 37.5957 87.2349 36.9904 86.9168C35.8103 86.2934 34.4475 86.2454 33.2597 86.7835C33.1061 86.8532 32.9506 86.9216 32.795 86.9852C31.5774 87.4793 30.641 88.5243 30.2243 89.8476C30.013 90.5177 29.4174 90.9678 28.7415 90.9678H27.2958C26.6192 90.9678 26.0243 90.5177 25.8137 89.8456C25.397 88.5237 24.4593 87.4808 23.2429 86.9859C23.0861 86.9223 22.9306 86.8539 22.7783 86.7856C22.2294 86.5372 21.6449 86.4127 21.0564 86.4127C20.3695 86.4127 19.6819 86.5812 19.0429 86.9176C18.4402 87.2357 17.7144 87.1145 17.2368 86.6171L16.2148 85.5483C15.7372 85.0495 15.6212 84.2914 15.9258 83.6605C16.5226 82.4266 16.5686 81.0046 16.0534 79.764C15.9867 79.6036 15.9212 79.4411 15.8603 79.2787C15.3872 78.0069 14.3867 77.0289 13.1197 76.5937C12.4813 76.3737 12.0504 75.7517 12.0504 75.0457V73.5357C12.0504 72.8291 12.4814 72.2077 13.1249 71.9878C14.3905 71.5525 15.389 70.5731 15.8629 69.3027C15.9238 69.1389 15.9892 68.9765 16.0547 68.8174C16.5712 67.5754 16.5251 66.1534 15.9283 64.9181C15.6237 64.2887 15.7397 63.5306 16.216 63.0317L17.2393 61.963C17.7169 61.4655 18.4427 61.3457 19.0468 61.6624C20.2281 62.2858 21.593 62.3359 22.7775 61.7958C22.9311 61.7261 23.0866 61.6577 23.2421 61.5941C24.4598 61.1 25.3962 60.0549 25.8129 58.7316C26.0235 58.0629 26.6191 57.6128 27.295 57.6128H28.7407C29.4173 57.6128 30.0122 58.0629 30.2228 58.735C30.6395 60.0569 31.5772 61.0998 32.7936 61.5947C32.9504 61.6583 33.1059 61.7267 33.2582 61.795C34.4487 62.3345 35.8089 62.2864 36.9916 61.6631C37.5969 61.3429 38.3214 61.4674 38.7977 61.9636L39.8197 63.0323C40.2973 63.5312 40.4133 64.2892 40.1087 64.9201C39.5119 66.154 39.4659 67.576 39.9811 68.8167C40.0478 68.9771 40.1133 69.1395 40.1742 69.302C40.6473 70.5737 41.6478 71.5517 42.9148 71.987C43.5551 72.2069 43.9861 72.829 43.9861 73.5349V75.0449C43.9861 75.7516 43.5551 76.3729 42.9116 76.5929C41.646 77.0281 40.6474 78.0061 40.1743 79.2765ZM87.117 74.9196L78.8253 78.1671V70.4139L87.117 73.6599C87.3665 73.7581 87.5349 74.0112 87.5349 74.2901C87.5349 74.5689 87.3665 74.8222 87.117 74.9196Z" fill="white" stroke="black" stroke-width="2" mask="url(#path-4-inside-1_76_650)"/>
<path d="M44.4863 42.9512H60.9057V44.9834H44.4863V42.9512Z" fill="#6D95FC" stroke="black"/>
<path d="M44.4863 49.0166H60.9057V51.0489H44.4863V49.0166Z" fill="#6D95FC" stroke="black"/>
<path d="M44.4863 55.0811H60.9057V57.1133H44.4863V55.0811Z" fill="#6D95FC" stroke="black"/>
<path d="M53.1953 61.1455H55.0985V63.1778H53.1953V61.1455Z" fill="#6D95FC" stroke="black"/>
<path d="M59.002 61.1455H60.9052V63.1778H59.002V61.1455Z" fill="#6D95FC" stroke="black"/>
<path d="M47.3887 61.1455H49.2919V63.1778H47.3887V61.1455Z" fill="#6D95FC" stroke="black"/>
</g>
<rect width="90" height="94" stroke="black"/>
<defs>
<clipPath id="clip0_76_650">
<rect width="90" height="94" fill="white"/>
</clipPath>
</defs>
</svg>
