<svg width="96" height="94" viewBox="0 0 96 94" fill="none" xmlns="http://www.w3.org/2000/svg">
<path fill-rule="evenodd" clip-rule="evenodd" d="M16.5294 63.2835C16.5294 65.7033 14.5616 67.6718 12.1425 67.6718C9.72269 67.6718 7.75419 65.704 7.75419 63.2835C7.75419 60.8637 9.72341 58.8952 12.1425 58.8952C14.5616 58.8966 16.5294 60.8637 16.5294 63.2835ZM5.81443 63.2835C5.81443 66.7713 8.65248 69.6094 12.1411 69.6094C15.6289 69.6094 18.467 66.7713 18.467 63.2835C18.467 59.7956 15.6289 56.9569 12.1411 56.9569C8.65248 56.9583 5.81443 59.7963 5.81443 63.2835ZM88.2446 63.2835C88.2446 65.7033 86.2769 67.6718 83.8564 67.6718C81.4387 67.6718 79.4695 65.704 79.4695 63.2835C79.4695 60.8637 81.4387 58.8952 83.8564 58.8952C86.2769 58.8966 88.2446 60.8637 88.2446 63.2835ZM77.5297 63.2835C77.5297 66.7713 80.3685 69.6094 83.8556 69.6094C87.3456 69.6094 90.1823 66.7713 90.1823 63.2835C90.1823 59.7956 87.3456 56.9569 83.8556 56.9569C80.3692 56.9583 77.5297 59.7963 77.5297 63.2835ZM47.9995 67.6718C45.5797 67.6718 43.6126 65.704 43.6126 63.2835C43.6126 60.8637 45.5804 58.8952 47.9995 58.8952C50.4193 58.8952 52.3878 60.863 52.3878 63.2835C52.3878 65.704 50.4193 67.6718 47.9995 67.6718ZM47.9995 56.9583C44.5116 56.9583 41.6736 59.7963 41.6736 63.2849C41.6736 66.7728 44.5116 69.6108 47.9995 69.6108C51.4881 69.6108 54.3261 66.7728 54.3261 63.2849C54.3261 59.7963 51.4881 56.9583 47.9995 56.9583ZM93.5641 91.2836H74.1522V78.6675C74.1522 76.6604 75.3143 74.807 77.0905 73.903C79.0703 75.3199 81.3981 76.0681 83.8549 76.0681C86.3153 76.0681 88.6412 75.3199 90.6194 73.903C92.3977 74.8062 93.5612 76.6604 93.5612 78.6675L93.5619 91.2836H93.5641ZM90.8461 71.8806C90.5247 71.7571 90.1597 71.8104 89.8903 72.0266C88.159 73.4014 86.0725 74.1298 83.8556 74.1298C81.6415 74.1298 79.5537 73.4007 77.8245 72.0266C77.5543 71.8118 77.1908 71.7571 76.8687 71.8806C74.084 72.9642 72.2137 75.6899 72.2137 78.6663V92.2514C72.2137 92.7868 72.6475 93.2205 73.1829 93.2205H94.5315C95.0663 93.2205 95.5 92.7854 95.5 92.2514V78.6677C95.5014 75.6915 93.6305 72.9643 90.8458 71.8808L90.8461 71.8806ZM57.7066 91.2836H38.2964V78.6675C38.2964 76.6604 39.4586 74.807 41.2369 73.903C43.2167 75.3199 45.5423 76.0681 48.0006 76.0681C50.4603 76.0681 52.7868 75.3199 54.765 73.903C56.5433 74.8062 57.7069 76.6604 57.7069 78.6675L57.7066 91.2836ZM54.9885 71.8806C54.6678 71.7571 54.3043 71.8104 54.0341 72.0266C52.3028 73.4014 50.2171 74.1298 48.0009 74.1298C45.7853 74.1298 43.699 73.4007 41.9676 72.0266C41.6981 71.8118 41.3346 71.7571 41.0139 71.8806C38.2292 72.9642 36.3575 75.6899 36.3575 78.6663V92.2514C36.3575 92.7868 36.7912 93.2205 37.3267 93.2205H58.6771C59.2119 93.2205 59.6463 92.7854 59.6463 92.2514V78.6677C59.6463 75.6915 57.7746 72.9643 54.9892 71.8808L54.9885 71.8806ZM21.849 91.2836H2.43886V78.6675C2.43886 76.6604 3.60102 74.807 5.37859 73.903C7.35841 75.3199 9.68478 76.0681 12.143 76.0681C14.6013 76.0681 16.9286 75.3199 18.9075 73.903C20.6851 74.8062 21.8472 76.6604 21.8472 78.6675L21.8479 91.2836H21.849ZM19.1317 71.8806C18.8103 71.7571 18.4474 71.8104 18.1773 72.0266C16.446 73.4014 14.3595 74.1298 12.144 74.1298C9.92777 74.1298 7.84213 73.4007 6.11078 72.0266C5.84059 71.8118 5.47777 71.7571 5.15635 71.8806C2.37167 72.9642 0.5 75.6899 0.5 78.6663V92.2514C0.5 92.7868 0.935112 93.2205 1.47056 93.2205H22.8174C23.3529 93.2205 23.7866 92.7854 23.7866 92.2514V78.6677C23.7873 75.6915 21.9163 72.9643 19.1309 71.8808L19.1317 71.8806ZM71.7622 17.1643C72.1825 17.1643 72.5545 16.8927 72.6857 16.4934L73.9875 12.4876L75.288 16.4934C75.4178 16.8927 75.7897 17.1643 76.2115 17.1643H80.4243L77.0149 19.6394C76.6753 19.8857 76.5328 20.3237 76.6627 20.723L77.9652 24.7288L74.5572 22.2536C74.3853 22.1322 74.186 22.0691 73.9874 22.0691C73.7874 22.0691 73.5874 22.1308 73.4161 22.2536L70.0082 24.7288L71.3107 20.723C71.4406 20.3236 71.2974 19.8857 70.9577 19.6394L67.5498 17.1643H71.7622ZM63.9956 16.9776L69.247 20.7932L67.242 26.9681C67.1122 27.3675 67.2533 27.8033 67.5929 28.0517C67.9333 28.298 68.3936 28.298 68.7333 28.0517L73.9861 24.2361L79.2375 28.0517C79.4059 28.1766 79.6067 28.2363 79.8074 28.2363C80.0074 28.2363 80.2067 28.1752 80.3772 28.0517C80.7169 27.8033 80.8579 27.3675 80.7281 26.9681L78.7231 20.7932L83.974 16.9776C84.3143 16.7313 84.4561 16.2934 84.327 15.8941C84.1971 15.4947 83.8252 15.2253 83.4034 15.2253H76.9119L74.9047 9.05026C74.7749 8.65094 74.4051 8.38145 73.9847 8.38145C73.5636 8.38145 73.1917 8.65094 73.0611 9.05026L71.0562 15.2253H64.5625C64.1435 15.2253 63.7716 15.4947 63.641 15.8941C63.5133 16.2934 63.6553 16.7313 63.9956 16.9776ZM45.7784 17.1643C46.1988 17.1643 46.5707 16.8927 46.7005 16.4934L48.001 12.4883L49.3035 16.4941C49.4333 16.8934 49.8053 17.165 50.2256 17.165H54.4384L51.029 19.6401C50.6894 19.8865 50.5483 20.3244 50.6768 20.7237L51.9793 24.7295L48.5699 22.2544C48.4008 22.1316 48.2008 22.0691 48.0008 22.0691C47.8008 22.0691 47.6014 22.1309 47.4316 22.2537L44.0223 24.7288L45.3248 20.723C45.4546 20.3237 45.3121 19.8857 44.9725 19.6394L41.5646 17.1643L45.7784 17.1643ZM38.0118 16.9776L43.2632 20.7932L41.2575 26.9681C41.1277 27.3675 41.2702 27.8033 41.6105 28.0517C41.9502 28.298 42.4098 28.298 42.7495 28.0517L48.0009 24.2369L53.2537 28.0524C53.4235 28.1773 53.6228 28.237 53.8228 28.237C54.0228 28.237 54.2229 28.1759 54.3927 28.0524C54.7331 27.804 54.8748 27.3682 54.7457 26.9689L52.74 20.7939L57.9908 16.9783C58.3312 16.732 58.4736 16.2941 58.3438 15.8948C58.214 15.4955 57.842 15.226 57.4224 15.226H50.9287L48.923 9.05098C48.7931 8.65166 48.4212 8.38217 48.0008 8.38217C47.5819 8.38217 47.2099 8.65166 47.0787 9.05098L45.0737 15.226H38.5815C38.1625 15.226 37.7891 15.4955 37.6593 15.8948C37.5302 16.2934 37.6719 16.7313 38.0116 16.9776L38.0118 16.9776ZM19.7928 17.1643C20.2132 17.1643 20.5851 16.8927 20.715 16.4934L22.0175 12.4876L23.3193 16.4934C23.4491 16.8927 23.8211 17.1643 24.2414 17.1643H28.4542L25.0463 19.6394C24.7059 19.8857 24.5642 20.3237 24.6933 20.723L25.9958 24.7288L22.5879 22.2536C22.4174 22.1322 22.2181 22.0691 22.0181 22.0691C21.818 22.0691 21.618 22.1308 21.4482 22.2536L18.0403 24.7288L19.3421 20.723C19.4719 20.3236 19.3309 19.8857 18.9898 19.6394L15.5819 17.1643H19.7928ZM12.0275 16.9776L17.2803 20.7932L15.2746 26.9681C15.1448 27.3675 15.2859 27.8033 15.6269 28.0517C15.9673 28.298 16.4262 28.298 16.7673 28.0517L22.0187 24.2361L27.2701 28.0517C27.4399 28.1766 27.6399 28.2363 27.8399 28.2363C28.0399 28.2363 28.24 28.1752 28.4098 28.0517C28.7494 27.8033 28.8905 27.3675 28.7621 26.9681L26.7564 20.7932L32.0078 16.9776C32.3481 16.7313 32.4899 16.2934 32.3607 15.8941C32.2309 15.4947 31.859 15.2253 31.4372 15.2253H24.9457L22.94 9.05026C22.8101 8.65094 22.4382 8.38145 22.0178 8.38145C21.5975 8.38145 21.2255 8.65094 21.0957 9.05026L19.09 15.2253H12.5977C12.1774 15.2253 11.8068 15.4947 11.6756 15.8941C11.5458 16.2934 11.6875 16.7313 12.0272 16.9776H12.0275ZM7.09952 9.34506V27.2729C7.09952 30.9271 10.0737 33.9013 13.7272 33.9013H43.597C44.0097 33.9013 44.3781 34.1631 44.5142 34.5532L48.0007 44.6218L51.4885 34.554C51.6247 34.1638 51.9917 33.902 52.4058 33.902H82.2773C85.9316 33.902 88.9036 30.9278 88.9036 27.2736V9.34506C88.9036 5.69084 85.9316 2.71877 82.2773 2.71877H13.7274C10.0732 2.71737 7.09952 5.6894 7.09952 9.34506ZM13.7272 35.8409H42.9071L47.0856 47.9003C47.2217 48.2926 47.5874 48.553 48.0014 48.553C48.4155 48.553 48.7832 48.2912 48.9173 47.9003L53.0957 35.8409H82.2756C86.9979 35.8409 90.8409 31.9978 90.8409 27.2734V9.3456C90.8409 4.6226 86.9966 0.780273 82.2756 0.780273H13.7257C9.0027 0.780273 5.16038 4.62332 5.16038 9.3456V27.2734C5.16178 31.9978 9.00424 35.8409 13.7272 35.8409Z" fill="url(#paint0_linear_78_1164)"/>
<defs>
<linearGradient id="paint0_linear_78_1164" x1="48" y1="0.780273" x2="48" y2="93.2205" gradientUnits="userSpaceOnUse">
<stop offset="0.452091" stop-color="#6D95FC"/>
<stop offset="0.64115" stop-color="white"/>
</linearGradient>
</defs>
</svg>
