<svg width="95" height="108" viewBox="0 0 95 108" fill="none" xmlns="http://www.w3.org/2000/svg">
<path d="M57.2321 102.421C57.7642 102.356 58.2225 101.997 58.4082 101.484C58.6141 100.915 58.4414 100.278 57.9762 99.8918C53.6127 96.2732 50.9387 91.0118 50.5887 85.3536C50.2387 79.6954 52.2439 74.1442 56.1283 70.0162C60.0128 65.8872 65.432 63.548 71.1009 63.5533C71.9864 63.5542 72.8715 63.6099 73.7499 63.7223C74.1596 63.7737 74.5705 63.6472 74.8794 63.3749C75.1888 63.102 75.3662 62.7102 75.3662 62.2984V17.3075C75.3646 15.7552 74.7473 14.2672 73.6497 13.1696C72.5521 12.0721 71.0644 11.4548 69.512 11.4531H54.7643C53.9711 11.4531 53.3278 12.0963 53.3278 12.8895V17.7738V18.2738H52.8278H23.0556H22.5556V17.7738V12.8895C22.5556 12.5086 22.4042 12.143 22.135 11.8738C21.8657 11.6045 21.5001 11.4531 21.1192 11.4531H6.35416C4.8019 11.4548 3.31406 12.0721 2.21651 13.1696C2.21651 13.1696 2.21651 13.1696 2.2165 13.1696M57.2321 102.421L0 17.307C0.00172906 15.6222 0.671706 14.0074 1.86295 12.8161L2.2165 13.1696M57.2321 102.421H57.0572H6.35465C4.80295 102.419 3.31504 101.802 2.21736 100.704C1.11982 99.6066 0.502486 98.1187 0.5 96.5672V17.3073M57.2321 102.421L0.5 17.3073M2.2165 13.1696C1.11895 14.2672 0.501661 15.755 0.5 17.3073M2.2165 13.1696L0.5 17.3073M6.35392 14.3264V14.3264L6.34944 14.3264C4.71198 14.3409 3.39005 15.6671 3.37969 17.3043H3.37968V17.3074L3.37968 96.568L3.37969 96.5687C3.38176 98.2104 4.70983 99.543 6.35202 99.5491H6.35388H52.4408H53.4828L52.8308 98.7362C49.1321 94.1251 47.3148 88.285 47.7447 82.389C48.1747 76.493 50.819 70.9779 55.1473 66.9516C59.4758 62.9254 65.1678 60.6858 71.079 60.6823C71.3812 60.6823 71.6649 60.6824 71.9481 60.6988L72.4769 60.7292V60.1996V17.3084V17.3077C72.4748 15.6627 71.1414 14.3294 69.4964 14.3273H69.4958H56.7008H56.2008V14.8273V19.7115C56.2008 20.0925 56.0494 20.458 55.7802 20.7273C55.5109 20.9966 55.1453 21.1479 54.7644 21.1479H21.1193C20.3259 21.1479 19.6829 20.5054 19.6829 19.7115V14.8273V14.3273L19.1829 14.3273L6.35392 14.3264Z" fill="white" stroke="black"/>
<path d="M30.7889 6.83955H30.3717H21.12C20.3268 6.83955 19.6836 7.48277 19.6836 8.27597V19.7104C19.6836 20.5043 20.3267 21.1468 21.12 21.1468H54.7651H54.7655C55.5589 21.1468 56.202 20.5043 56.202 19.7104V8.27597C56.202 7.89502 56.0506 7.52946 55.7813 7.2602C55.512 6.99093 55.1465 6.83955 54.7655 6.83955H45.5216H45.1044L45.0297 6.42911C44.6239 4.20053 43.1924 2.29282 41.1657 1.2791C39.1393 0.266347 36.754 0.266344 34.7276 1.27908L30.7889 6.83955ZM30.7889 6.83955L30.8636 6.42911M30.7889 6.83955L30.8636 6.42911M30.8636 6.42911C31.2694 4.2006 32.7008 2.29305 34.7274 1.27917L30.8636 6.42911ZM22.5565 18.274L22.5564 17.774L22.5561 10.2124L22.5561 9.71239H23.0561H32.1841H32.1865C32.5927 9.71432 32.9805 9.54398 33.2546 9.24384C33.5232 8.94887 33.657 8.5572 33.6252 8.16167L33.6247 8.15822C33.6006 7.98966 33.6006 7.84349 33.6007 7.72193V7.71233V7.69947L33.6008 7.69947C33.6399 6.18017 34.4715 4.79215 35.7951 4.04329L22.5565 18.274ZM22.5565 18.274H23.0564H52.8287H53.3287V17.774V10.2124V9.71239H52.8287L43.6695 9.71239L43.6671 9.7124C43.2607 9.71432 42.872 9.54381 42.5981 9.24384M22.5565 18.274L42.5981 9.24384M42.5981 9.24384C42.3242 8.94301 42.1909 8.54106 42.2307 8.1364L42.2307 8.13622M42.5981 9.24384L42.2307 8.13622M42.2307 8.13622C42.2441 7.99896 42.2521 7.86408 42.2521 7.71233H42.2523M42.2307 8.13622L42.2523 7.71233M42.2523 7.71233L42.2519 7.69979M42.2523 7.71233L42.2519 7.69979M42.2519 7.69979C42.2138 6.17994 41.3811 4.79198 40.0585 4.04328M42.2519 7.69979L40.0585 4.04328M40.0585 4.04328C38.7362 3.29465 37.1176 3.29456 35.7952 4.0432L40.0585 4.04328Z" fill="white" stroke="black"/>
<path d="M11.2704 93.6019C10.4772 93.6019 9.83398 92.9587 9.83398 92.1655V21.704C9.83398 20.9101 10.4771 20.2676 11.2704 20.2676C12.0638 20.2676 12.7068 20.9101 12.7068 21.704V92.1655C12.7068 92.5461 12.5557 92.9111 12.2858 93.1817C12.0165 93.4507 11.6512 93.6019 11.2704 93.6019Z" fill="#6D95FC" stroke="black"/>
<path d="M64.6024 64.5292C63.8092 64.5292 63.166 63.886 63.166 63.0928V21.702C63.166 20.9088 63.8092 20.2656 64.6024 20.2656C65.3956 20.2656 66.0389 20.9088 66.0389 21.702V63.0928C66.0389 63.4738 65.8875 63.8393 65.6182 64.1086L65.9718 64.4621L65.6182 64.1086C65.3489 64.3779 64.9834 64.5292 64.6024 64.5292Z" fill="#6D95FC" stroke="black"/>
<path d="M56.2921 69.2898H18.6259C17.8325 69.2898 17.1895 68.6473 17.1895 67.8534C17.1895 67.0602 17.8327 66.417 18.6259 66.417H56.2921C57.0853 66.417 57.7285 67.0602 57.7285 67.8534C57.7285 68.6473 57.0854 69.2898 56.2921 69.2898Z" fill="#6D95FC" stroke="black"/>
<path d="M50.9384 76.781H18.6278C17.8346 76.781 17.1914 76.1378 17.1914 75.3446C17.1914 74.5507 17.8345 73.9082 18.6278 73.9082H50.9384C51.7318 73.9082 52.3749 74.5507 52.3749 75.3446C52.3749 76.1378 51.7316 76.781 50.9384 76.781Z" fill="#6D95FC" stroke="black"/>
<path d="M49.1638 84.2703H18.6259C17.8327 84.2703 17.1895 83.6271 17.1895 82.8339C17.1895 82.0407 17.8327 81.3975 18.6259 81.3975H49.1638C49.957 81.3975 50.6003 82.0407 50.6003 82.8339C50.6003 83.6271 49.957 84.2703 49.1638 84.2703Z" fill="#6D95FC" stroke="black"/>
<path d="M50.0289 91.7586H18.6278C17.8346 91.7586 17.1914 91.1154 17.1914 90.3222C17.1914 89.529 17.8346 88.8857 18.6278 88.8857H50.0289C50.8228 88.8857 51.4653 89.5288 51.4653 90.3222C51.4653 91.1155 50.8228 91.7586 50.0289 91.7586Z" fill="#6D95FC" stroke="black"/>
<path d="M87.6367 100.618L87.6367 100.618C92.0245 96.231 94.4927 90.2816 94.5003 84.0764C94.5001 77.869 92.0354 71.9159 87.6462 67.5257C83.2567 63.1363 77.304 60.6698 71.0966 60.6689L87.6367 100.618ZM87.6367 100.618C83.2488 105.006 77.2994 107.474 71.0944 107.48C64.8872 107.48 58.9338 105.013 54.5445 100.624M87.6367 100.618L54.5445 100.624M54.5445 100.624C50.155 96.2345 47.6895 90.2811 47.6895 84.0735M54.5445 100.624L47.6895 84.0735M47.6895 84.0735C47.6895 77.8661 50.1559 71.9125 54.5453 67.524M47.6895 84.0735L54.5453 67.524M54.5453 67.524C58.9356 63.1345 64.889 60.669 71.0966 60.6689L54.5453 67.524ZM71.5949 63.5603V63.544H71.0949C65.6491 63.544 60.4269 65.7078 56.576 69.5577L56.576 69.5577C52.7251 73.4086 50.5623 78.6309 50.5623 84.0766C50.5623 89.5223 52.7252 94.7446 56.576 98.5955L56.576 98.5955C60.4269 102.445 65.6491 104.609 71.0949 104.609C76.5406 104.609 81.7629 102.445 85.6129 98.5955C89.4637 94.7446 91.6274 89.5223 91.6274 84.0766V84.0758C91.6195 78.6339 89.4531 73.4169 85.6041 69.5698C81.8731 65.8405 76.8558 63.6931 71.5949 63.5603Z" fill="white" stroke="black"/>
<path d="M64.8426 91.5119L64.842 91.5113L62.4969 89.1689L62.4966 89.1686L62.4961 89.168L62.496 89.1679C62.2271 88.899 62.0762 88.5336 62.0762 88.1521C62.0762 87.7712 62.2275 87.4059 62.4973 87.1368L62.4975 87.1365C63.0588 86.5759 63.9689 86.5762 64.529 87.137L64.5292 87.1372L65.4974 88.1054L65.851 88.4589L66.2045 88.1055L77.6513 76.6613C78.2158 76.1293 79.103 76.1416 79.6524 76.691C80.2017 77.2403 80.214 78.1274 79.6821 78.692L66.8589 91.5151C66.8588 91.5153 66.8586 91.5154 66.8585 91.5156C66.5917 91.7808 66.2318 91.9307 65.855 91.9339C65.4749 91.9327 65.1109 91.7808 64.8426 91.5119Z" fill="#6D95FC" stroke="black"/>
<path d="M58.8766 96.3022L58.8766 96.3022C62.1171 99.5433 66.5115 101.363 71.0944 101.363C75.6752 101.358 80.0668 99.5367 83.3065 96.2977C86.5455 93.0589 88.3679 88.6672 88.3738 84.0865C88.3745 79.5044 86.5539 75.1088 83.3144 71.8685C80.0738 68.6272 75.6791 66.8065 71.0968 66.8057L58.8766 96.3022ZM58.8766 96.3022C55.6362 93.0618 53.8164 88.6668 53.8164 84.0836M58.8766 96.3022L53.8164 84.0836M71.0952 69.6812H71.0958C74.915 69.6857 78.5769 71.2045 81.2769 73.9053C81.2769 73.9054 81.277 73.9054 81.277 73.9055M71.0952 69.6812L80.9234 74.2589L81.277 73.9055M71.0952 69.6812C67.2747 69.6812 63.6102 71.1991 60.9082 73.9009L60.9082 73.901C58.2072 76.6019 56.6893 80.2667 56.6893 84.0871C56.6893 87.9076 58.2072 91.5721 60.9081 94.2741L60.9082 94.2742C63.61 96.9751 67.2748 98.4931 71.0952 98.4931C74.9156 98.4931 78.5802 96.9751 81.2813 94.2742L81.2814 94.2742C83.9832 91.5723 85.5011 87.9076 85.5011 84.0871V84.0865C85.4967 80.2673 83.978 76.6054 81.277 73.9055M71.0952 69.6812L81.277 73.9055M53.8164 84.0836C53.8164 79.5013 55.637 75.1066 58.8775 71.8659M53.8164 84.0836L58.8775 71.8659M58.8775 71.8659C58.8775 71.8659 58.8775 71.8659 58.8775 71.8659C62.1188 68.6255 66.5137 66.8057 71.0967 66.8057L58.8775 71.8659Z" fill="white" stroke="black"/>
<path d="M33.144 55.8502V56.1797V60.5056C33.144 61.2988 33.7872 61.942 34.5804 61.942H41.2895C41.6702 61.942 42.0356 61.7908 42.3049 61.5217C42.5748 61.2512 42.726 60.8861 42.726 60.5055V56.1797V55.8493L43.0298 55.7197C44.0042 55.3042 44.9241 54.7722 45.769 54.1346L45.9027 54.0337H46.0702H46.071H46.2051L46.3211 54.1007L50.0678 56.2645L50.068 56.2646C50.7549 56.6616 51.6334 56.4267 52.0302 55.7408L55.3849 49.9321L33.144 55.8502ZM33.144 55.8502L32.8411 55.7202C31.8679 55.3028 30.949 54.7713 30.1024 54.1364L29.8383 53.9383L29.5524 54.1034L25.9217 56.2001M33.144 55.8502L25.9217 56.2001M25.9217 56.2001H25.9208L25.8047 56.2672C25.4751 56.4577 25.0827 56.5096 24.7148 56.4109L24.5853 56.8938L24.7148 56.4109C24.3469 56.3122 24.0332 56.0711 23.8426 55.7412C23.8425 55.7412 23.8425 55.7412 23.8425 55.7411L20.4877 49.9322L25.9217 56.2001ZM19.861 48.7116L20.3439 48.8411C20.2452 49.2088 20.297 49.6013 20.4876 49.932L19.861 48.7116ZM19.861 48.7116L20.3439 48.8411C20.4426 48.4732 20.6837 48.1594 21.0136 47.9688L24.7583 45.8077L25.0445 45.6426M19.861 48.7116L25.0445 45.6426M25.0445 45.6426L25.0048 45.3145M25.0445 45.6426L25.0048 45.3145M25.0048 45.3145C24.8773 44.2635 24.8773 43.2008 25.0048 42.1498L25.0445 41.8217M25.0048 45.3145L25.0445 41.8217M25.0445 41.8217L24.7583 41.6566M25.0445 41.8217L24.7583 41.6566M24.7583 41.6566L21.0136 39.4955L24.7583 41.6566ZM20.3439 38.6232L20.3439 38.6232C20.4426 38.991 20.6836 39.3047 21.0134 39.4954L20.3439 38.6232ZM20.3439 38.6232C20.2452 38.2555 20.297 37.8628 20.4877 37.5321L23.8425 31.7232C23.8425 31.7232 23.8425 31.7231 23.8426 31.7231C24.0332 31.3932 24.3469 31.1521 24.7148 31.0534L24.7148 31.0534M20.3439 38.6232L24.7148 31.0534M24.7148 31.0534C25.0827 30.9548 25.4751 31.0067 25.8047 31.1971L25.8048 31.1971M24.7148 31.0534L25.8048 31.1971M25.8048 31.1971L29.5515 33.3609L29.6676 33.4279M25.8048 31.1971L29.6676 33.4279M29.6676 33.4279H29.8016M29.6676 33.4279H29.8016M29.8016 33.4279H29.8024H29.9694M29.8016 33.4279H29.9694M29.9694 33.4279L30.1029 33.3276M29.9694 33.4279L30.1029 33.3276M30.1029 33.3276C30.9481 32.6922 31.8677 32.1608 32.8408 31.7442L33.144 31.6144M30.1029 33.3276L33.144 31.6144M33.144 31.6144V31.2846M33.144 31.6144V31.2846M33.144 31.2846V26.9569C33.144 26.163 33.7871 25.5205 34.5804 25.5205H41.2895M33.144 31.2846L41.2895 25.5205M41.2895 25.5205C41.6705 25.5205 42.0361 25.6719 42.3053 25.9412C42.5746 26.2104 42.726 26.576 42.726 26.9569V30.5251V31.2819V31.2828H43.2256M41.2895 25.5205L43.2256 31.2828M43.2256 31.2828L43.0298 31.7418C44.0039 32.1573 44.9234 32.6895 45.77 33.3251L46.034 33.5234L46.32 33.3584L50.0676 31.1973L50.0679 31.197C50.3975 31.0066 50.79 30.9547 51.1578 31.0534L51.2874 30.5705L51.1578 31.0534C51.5257 31.1521 51.8395 31.3932 52.0301 31.7231L55.3849 37.532L43.2256 31.2828ZM54.8592 39.4954C55.189 39.3047 55.4301 38.991 55.5288 38.6231C55.6274 38.2555 55.5757 37.863 55.3851 37.5323L54.8592 39.4954ZM54.8592 39.4954C54.8592 39.4954 54.8591 39.4954 54.859 39.4955L51.2286 41.5896H50.7959L50.8654 42.151C50.9302 42.6747 50.9619 43.202 50.961 43.7304L50.961 43.732C50.9619 44.2605 50.9302 44.7895 50.8677 45.3156L50.8288 45.6429L51.1143 45.8077L54.859 47.9687C55.1889 48.1593 55.43 48.4731 55.5287 48.841C55.6274 49.2087 55.5756 49.6012 55.385 49.9319L54.8592 39.4954ZM36.0158 59.0692L36.016 58.5691L36.0168 54.8295C36.0168 54.8295 36.0168 54.8294 36.0168 54.8294C36.0168 54.1955 35.6024 53.6371 34.9966 53.4538L34.9957 53.4535C33.5013 52.9981 32.1306 52.2055 30.99 51.1375L30.9892 51.1368C30.5285 50.7036 29.8381 50.6233 29.2898 50.9394L26.0467 52.8126L25.6137 53.0627L25.3636 52.6296L23.945 50.1727L23.695 49.7396L24.1281 49.4896L27.3689 47.619C27.369 47.619 27.369 47.6189 27.3691 47.6189C27.9175 47.3019 28.1936 46.6639 28.0494 46.048L28.0493 46.0476C27.6939 44.524 27.6939 42.9387 28.0493 41.4151C28.1929 40.799 27.9167 40.1623 27.3687 39.8453L24.1281 37.9748L23.695 37.7248L23.945 37.2917L25.3636 34.8348L25.6137 34.4017L26.0467 34.6518L29.2899 36.525C29.2899 36.525 29.2899 36.525 29.29 36.525C29.8381 36.841 30.5284 36.7608 30.9892 36.3276L30.99 36.3268C32.1308 35.2589 33.5013 34.4663 34.9957 34.0109L34.9966 34.0106C35.6024 33.8273 36.0168 33.2689 36.0168 32.6349V28.8935V28.3935H36.5168H39.3531H39.8531V28.8935V32.6349C39.8531 33.2684 40.2687 33.8277 40.8753 34.0104L40.8768 34.0109C42.3712 34.4663 43.7419 35.2589 44.8826 36.3268L44.8829 36.3271C45.3444 36.7599 46.0348 36.8393 46.5821 36.5227L46.5827 36.5224L49.8261 34.6517L50.259 34.402L50.5089 34.8348L51.9275 37.2917L52.1776 37.7248L51.7445 37.9748L48.5039 39.8452C47.9558 40.1623 47.6797 40.7991 47.8233 41.4152L47.8234 41.4159C48.176 42.939 48.176 44.5228 47.8234 46.0467L47.8232 46.048C47.6789 46.664 47.9551 47.3021 48.5037 47.619L51.7445 49.4896L52.1776 49.7396L51.9275 50.1727L50.5089 52.6296L50.2589 53.0627L49.8259 52.8125L46.5827 50.9394L36.0158 59.0692ZM36.0158 59.0692H36.516M36.0158 59.0692H36.516M36.516 59.0692H39.3531H39.8531M36.516 59.0692H39.8531M39.8531 59.0692V58.5692M39.8531 59.0692V58.5692M39.8531 58.5692V54.8269C39.8531 54.1934 40.2687 53.6341 40.8753 53.4514L40.8762 53.4511M39.8531 58.5692L40.8762 53.4511M40.8762 53.4511C42.3717 52.9974 43.7426 52.2056 44.8827 51.1374L44.8833 51.1368M40.8762 53.4511L44.8833 51.1368M44.8833 51.1368C45.3441 50.7036 46.0344 50.6234 46.5824 50.9392L44.8833 51.1368ZM31.3317 36.6919C30.7101 37.2762 29.7791 37.3843 29.0401 36.9581L31.3317 36.6919Z" fill="#6D95FC" stroke="black"/>
<path d="M32.9311 48.7367L32.9312 48.7368C34.2578 50.0642 36.0583 50.811 37.9353 50.8111L32.9311 48.7367ZM32.9311 48.7367C31.6037 47.4094 30.8585 45.6088 30.8594 43.7316V43.7314M32.9311 48.7367L30.8594 43.7314M30.8594 43.7314C30.8594 41.8541 31.6054 40.0535 32.9327 38.727C34.2611 37.3995 36.0609 36.6543 37.9382 36.6543C39.8154 36.6543 41.6161 37.4004 42.9436 38.7278C44.2708 40.055 45.016 41.8554 45.0161 43.7327C45.0145 45.6101 44.2676 47.4099 42.9401 48.7366L42.94 48.7367M30.8594 43.7314L42.94 48.7367M42.94 48.7367C41.6126 50.0642 39.8128 50.8102 37.9355 50.8111L42.94 48.7367ZM37.9351 39.5271L37.9355 39.5271C39.051 39.5271 40.1204 39.9696 40.91 40.7583L40.9102 40.7585C41.699 41.5473 42.1423 42.6166 42.1433 43.7328V43.7332C42.1433 44.8476 41.7009 45.9181 40.9117 46.7063C40.1231 47.4948 39.054 47.9382 37.9386 47.9383C37.9385 47.9383 37.9383 47.9383 37.9382 47.9383V47.4383L37.9351 39.5271ZM37.9351 39.5271C36.8198 39.5281 35.7504 39.9715 34.9624 40.7604M37.9351 39.5271L34.9624 40.7604M34.9624 40.7604C34.1737 41.5493 33.7312 42.6196 33.7321 43.7342L34.9624 40.7604Z" fill="#6D95FC" stroke="black"/>
</svg>
