<svg width="105" height="96" viewBox="0 0 105 96" fill="none" xmlns="http://www.w3.org/2000/svg">
<path d="M45.1009 28.9172C44.8582 29.1518 44.7219 29.4742 44.7219 29.8113C44.7219 30.1483 44.8582 30.4707 45.1009 30.7053C45.3429 30.94 45.6706 31.066 46.0076 31.0561L45.1009 28.9172ZM45.1009 28.9172C45.3429 28.6826 45.6706 28.5565 46.0076 28.5664L45.1009 28.9172ZM88.0326 24.7696L87.9721 24.7639L79.2236 23.9409L78.9295 23.9132L78.8118 23.6423L75.3131 15.5894L75.3121 15.587C75.1946 15.3129 74.9245 15.1355 74.6246 15.1374L74.62 15.1374C74.3276 15.1365 74.0642 15.3122 73.9536 15.5807L73.95 15.5894L73.9499 15.5893L70.452 23.6423L70.3343 23.9132L70.0402 23.9409L61.2901 24.7639L61.2803 24.6594L61.2845 24.7644C60.9858 24.7887 60.7316 24.9885 60.6377 25.2716C60.5444 25.5546 60.6294 25.8658 60.8541 26.0622L60.8552 26.0631L67.4582 31.8671L67.681 32.0629L67.6159 32.3523L65.7137 40.8088L65.6908 40.9139C65.6274 41.205 65.7421 41.5054 65.9837 41.68C66.2259 41.8551 66.5491 41.8707 66.8067 41.7198C66.8068 41.7198 66.8069 41.7197 66.807 41.7196L74.3662 37.2487L74.6204 37.0983L74.8748 37.2484L82.4548 41.7203L82.4581 41.7223C82.5685 41.7885 82.6955 41.8242 82.8269 41.8252C82.9857 41.8254 83.1404 41.7753 83.2682 41.6824L83.2693 41.6815C83.5092 41.5081 83.6212 41.2083 83.554 40.9216L83.5528 40.9167L81.637 32.3517L81.5723 32.0627L81.7948 31.8671L88.3954 26.0628C88.3959 26.0624 88.3963 26.062 88.3968 26.0616C88.6166 25.864 88.6994 25.5556 88.6081 25.2736L88.0326 24.7696ZM88.0326 24.7696C88.3006 24.8199 88.522 25.012 88.6078 25.2727L88.0326 24.7696ZM61.2891 17.5502L61.2877 17.5489L53.8557 10.139C53.855 10.1383 53.8544 10.1377 53.8538 10.1371C53.5674 9.84286 53.5675 9.37409 53.854 9.07995C53.9933 8.9413 54.183 8.86298 54.3807 8.86298C54.5788 8.86298 54.7686 8.94169 54.9083 9.08159L54.9088 9.08212L62.3357 16.4961L62.3557 16.516C62.4839 16.6541 62.555 16.8345 62.555 17.0226C62.555 17.2193 62.4766 17.4085 62.3358 17.549L62.3346 17.5502C62.197 17.6884 62.0086 17.7667 61.8114 17.7667C61.6147 17.7667 61.4269 17.6887 61.2891 17.5502ZM46.0076 30.5561H46.0002L45.9928 30.5563C45.7897 30.5623 45.5932 30.4862 45.449 30.3464L45.4484 30.3458C45.3034 30.2057 45.2219 30.0131 45.2219 29.8113C45.2219 29.6094 45.3034 29.4168 45.4484 29.2767L45.449 29.2761C45.5932 29.1363 45.7897 29.0602 45.9928 29.0662L46.0002 29.0664H46.0076H56.4198C56.8215 29.0822 57.1383 29.4115 57.1383 29.8113C57.1383 30.211 56.8215 30.5403 56.4198 30.5561H46.0076ZM103.782 29.2848C103.91 29.4124 103.986 29.5812 103.998 29.7593L103.998 29.8132C103.999 30.0093 103.921 30.1983 103.781 30.3371L103.781 30.3377C103.641 30.4774 103.451 30.5561 103.253 30.5561H92.8364C92.4347 30.5403 92.1179 30.211 92.1179 29.8113C92.1179 29.4115 92.4347 29.0822 92.8364 29.0664H103.254C103.452 29.0664 103.642 29.1452 103.782 29.2848ZM94.3362 9.08525C94.6146 8.80974 95.0554 8.79427 95.3521 9.03882L95.3989 9.08533C95.5393 9.22507 95.6183 9.41483 95.6183 9.61118C95.6183 9.80845 95.5392 9.99817 95.3989 10.1378L95.3984 10.1383L87.9707 17.5464C87.9704 17.5467 87.97 17.5471 87.9697 17.5474C87.8258 17.6886 87.6325 17.7676 87.4314 17.7671L87.431 17.7671C87.1284 17.7666 86.8559 17.5844 86.7405 17.3061L86.7404 17.3058C86.6252 17.0284 86.6886 16.7081 86.9021 16.4951L94.3356 9.08586C94.3358 9.08565 94.336 9.08545 94.3362 9.08525ZM74.6238 0.500026L74.625 0.500018C74.8246 0.498641 75.0159 0.576619 75.157 0.716545C75.2989 0.857259 75.3782 1.04764 75.3782 1.24413V10.5501C75.3623 10.9508 75.0316 11.2699 74.6269 11.2699C74.2222 11.2699 73.8918 10.9507 73.8765 10.5505V1.24524C73.8774 0.836203 74.2102 0.501863 74.6238 0.500026ZM67.1281 32.2426L65.314 40.3075L60.5251 26.4386L67.1281 32.2426ZM65.6074 95.5V50.4739H83.6374V95.5H65.6074ZM62.1141 95.5H44.0772L44.078 61.2219H62.1141V95.5ZM1 82.7125H19.0385V95.5H1V82.7125ZM40.5837 71.9657V95.4998H22.5406V71.9657H40.5837Z" fill="url(#paint0_linear_78_1243)" stroke="#6D95FC"/>
<defs>
<linearGradient id="paint0_linear_78_1243" x1="72" y1="62.5" x2="71.9841" y2="48" gradientUnits="userSpaceOnUse">
<stop offset="0.63776" stop-color="#6D95FC"/>
<stop offset="1" stop-color="white"/>
</linearGradient>
</defs>
</svg>
