<svg width="244" height="94" viewBox="0 0 244 94" fill="none" xmlns="http://www.w3.org/2000/svg">
<path d="M3.76934 41.75C3.76934 37.9733 4.61267 34.6 6.29934 31.63C8.02267 28.6233 10.351 26.295 13.2843 24.645C16.2543 22.9583 19.5727 22.115 23.2393 22.115C27.5293 22.115 31.2877 23.215 34.5143 25.415C37.741 27.615 39.996 30.6583 41.2793 34.545H32.4243C31.5443 32.7117 30.2977 31.3367 28.6843 30.42C27.1077 29.5033 25.2743 29.045 23.1843 29.045C20.9477 29.045 18.9493 29.5767 17.1893 30.64C15.466 31.6667 14.1093 33.1333 13.1193 35.04C12.166 36.9467 11.6893 39.1833 11.6893 41.75C11.6893 44.28 12.166 46.5167 13.1193 48.46C14.1093 50.3667 15.466 51.8517 17.1893 52.915C18.9493 53.9417 20.9477 54.455 23.1843 54.455C25.2743 54.455 27.1077 53.9967 28.6843 53.08C30.2977 52.1267 31.5443 50.7333 32.4243 48.9H41.2793C39.996 52.8233 37.741 55.885 34.5143 58.085C31.3243 60.2483 27.566 61.33 23.2393 61.33C19.5727 61.33 16.2543 60.505 13.2843 58.855C10.351 57.1683 8.02267 54.84 6.29934 51.87C4.61267 48.9 3.76934 45.5267 3.76934 41.75ZM68.4811 61L60.0111 46.04H56.3811V61H48.6811V22.61H63.0911C66.0611 22.61 68.5911 23.1417 70.6811 24.205C72.7711 25.2317 74.3295 26.6433 75.3561 28.44C76.4195 30.2 76.9511 32.18 76.9511 34.38C76.9511 36.91 76.2178 39.2017 74.7511 41.255C73.2845 43.2717 71.1028 44.665 68.2061 45.435L77.3911 61H68.4811ZM56.3811 40.265H62.8161C64.9061 40.265 66.4645 39.77 67.4911 38.78C68.5178 37.7533 69.0311 36.3417 69.0311 34.545C69.0311 32.785 68.5178 31.4283 67.4911 30.475C66.4645 29.485 64.9061 28.99 62.8161 28.99H56.3811V40.265ZM92.4405 28.825V38.45H105.366V44.555H92.4405V54.73H107.016V61H84.7405V22.555H107.016V28.825H92.4405ZM138.378 53.685H123.088L120.558 61H112.473L126.278 22.555H135.243L149.048 61H140.908L138.378 53.685ZM136.288 47.525L130.733 31.465L125.178 47.525H136.288ZM181.158 22.61V28.825H170.928V61H163.228V28.825H152.998V22.61H181.158ZM195.301 22.61V61H187.601V22.61H195.301ZM201.864 41.75C201.864 37.9733 202.707 34.6 204.394 31.63C206.117 28.6233 208.446 26.295 211.379 24.645C214.349 22.9583 217.667 22.115 221.334 22.115C225.624 22.115 229.382 23.215 232.609 25.415C235.836 27.615 238.091 30.6583 239.374 34.545H230.519C229.639 32.7117 228.392 31.3367 226.779 30.42C225.202 29.5033 223.369 29.045 221.279 29.045C219.042 29.045 217.044 29.5767 215.284 30.64C213.561 31.6667 212.204 33.1333 211.214 35.04C210.261 36.9467 209.784 39.1833 209.784 41.75C209.784 44.28 210.261 46.5167 211.214 48.46C212.204 50.3667 213.561 51.8517 215.284 52.915C217.044 53.9417 219.042 54.455 221.279 54.455C223.369 54.455 225.202 53.9967 226.779 53.08C228.392 52.1267 229.639 50.7333 230.519 48.9H239.374C238.091 52.8233 235.836 55.885 232.609 58.085C229.419 60.2483 225.661 61.33 221.334 61.33C217.667 61.33 214.349 60.505 211.379 58.855C208.446 57.1683 206.117 54.84 204.394 51.87C202.707 48.9 201.864 45.5267 201.864 41.75Z" fill="#6D95FC"/>
<path d="M42.1441 81.114C42.1441 80.162 42.3588 79.308 42.7881 78.552C43.2174 77.7867 43.8008 77.1893 44.5381 76.76C45.2848 76.3307 46.1108 76.116 47.0161 76.116C48.0801 76.116 49.0088 76.3727 49.8021 76.886C50.5954 77.3993 51.1741 78.1273 51.5381 79.07H50.0121C49.7414 78.482 49.3494 78.0293 48.8361 77.712C48.3321 77.3947 47.7254 77.236 47.0161 77.236C46.3348 77.236 45.7234 77.3947 45.1821 77.712C44.6408 78.0293 44.2161 78.482 43.9081 79.07C43.6001 79.6487 43.4461 80.33 43.4461 81.114C43.4461 81.8887 43.6001 82.57 43.9081 83.158C44.2161 83.7367 44.6408 84.1847 45.1821 84.502C45.7234 84.8193 46.3348 84.978 47.0161 84.978C47.7254 84.978 48.3321 84.824 48.8361 84.516C49.3494 84.1987 49.7414 83.746 50.0121 83.158H51.5381C51.1741 84.0913 50.5954 84.8147 49.8021 85.328C49.0088 85.832 48.0801 86.084 47.0161 86.084C46.1108 86.084 45.2848 85.874 44.5381 85.454C43.8008 85.0247 43.2174 84.432 42.7881 83.676C42.3588 82.92 42.1441 82.066 42.1441 81.114ZM61.2326 86L58.9086 82.01H57.3686V86H56.0946V76.242H59.2446C59.9819 76.242 60.6026 76.368 61.1066 76.62C61.6199 76.872 62.0026 77.2127 62.2546 77.642C62.5066 78.0713 62.6326 78.5613 62.6326 79.112C62.6326 79.784 62.4366 80.3767 62.0446 80.89C61.6619 81.4033 61.0832 81.744 60.3086 81.912L62.7586 86H61.2326ZM57.3686 80.988H59.2446C59.9352 80.988 60.4532 80.82 60.7986 80.484C61.1439 80.1387 61.3166 79.6813 61.3166 79.112C61.3166 78.5333 61.1439 78.0853 60.7986 77.768C60.4626 77.4507 59.9446 77.292 59.2446 77.292H57.3686V80.988ZM68.5461 77.278V80.54H72.1021V81.59H68.5461V84.95H72.5221V86H67.2721V76.228H72.5221V77.278H68.5461ZM82.8779 83.83H78.6219L77.8379 86H76.4939L80.0219 76.298H81.4919L85.0059 86H83.6619L82.8779 83.83ZM82.5139 82.794L80.7499 77.866L78.9859 82.794H82.5139ZM95.2095 76.242V77.278H92.5495V86H91.2755V77.278H88.6015V76.242H95.2095ZM100.712 76.242V86H99.4377V76.242H100.712ZM113.607 76.242L109.925 86H108.455L104.773 76.242H106.131L109.197 84.656L112.263 76.242H113.607ZM118.938 77.278V80.54H122.494V81.59H118.938V84.95H122.914V86H117.664V76.228H122.914V77.278H118.938ZM139.662 83.83H135.406L134.622 86H133.278L136.806 76.298H138.276L141.79 86H140.446L139.662 83.83ZM139.298 82.794L137.534 77.866L135.77 82.794H139.298ZM153.38 79.07C153.109 78.5007 152.717 78.062 152.204 77.754C151.69 77.4367 151.093 77.278 150.412 77.278C149.73 77.278 149.114 77.4367 148.564 77.754C148.022 78.062 147.593 78.51 147.276 79.098C146.968 79.6767 146.814 80.3487 146.814 81.114C146.814 81.8793 146.968 82.5513 147.276 83.13C147.593 83.7087 148.022 84.1567 148.564 84.474C149.114 84.782 149.73 84.936 150.412 84.936C151.364 84.936 152.148 84.6513 152.764 84.082C153.38 83.5127 153.739 82.7427 153.842 81.772H149.95V80.736H155.2V81.716C155.125 82.5187 154.873 83.256 154.444 83.928C154.014 84.5907 153.45 85.118 152.75 85.51C152.05 85.8927 151.27 86.084 150.412 86.084C149.506 86.084 148.68 85.874 147.934 85.454C147.187 85.0247 146.594 84.432 146.156 83.676C145.726 82.92 145.512 82.066 145.512 81.114C145.512 80.162 145.726 79.308 146.156 78.552C146.594 77.7867 147.187 77.194 147.934 76.774C148.68 76.3447 149.506 76.13 150.412 76.13C151.448 76.13 152.362 76.3867 153.156 76.9C153.958 77.4133 154.542 78.1367 154.906 79.07H153.38ZM160.818 77.278V80.54H164.374V81.59H160.818V84.95H164.794V86H159.544V76.228H164.794V77.278H160.818ZM177.054 86H175.78L170.656 78.23V86H169.382V76.228H170.656L175.78 83.984V76.228H177.054V86ZM181.41 81.114C181.41 80.162 181.624 79.308 182.054 78.552C182.483 77.7867 183.066 77.1893 183.804 76.76C184.55 76.3307 185.376 76.116 186.282 76.116C187.346 76.116 188.274 76.3727 189.068 76.886C189.861 77.3993 190.44 78.1273 190.804 79.07H189.278C189.007 78.482 188.615 78.0293 188.102 77.712C187.598 77.3947 186.991 77.236 186.282 77.236C185.6 77.236 184.989 77.3947 184.448 77.712C183.906 78.0293 183.482 78.482 183.174 79.07C182.866 79.6487 182.712 80.33 182.712 81.114C182.712 81.8887 182.866 82.57 183.174 83.158C183.482 83.7367 183.906 84.1847 184.448 84.502C184.989 84.8193 185.6 84.978 186.282 84.978C186.991 84.978 187.598 84.824 188.102 84.516C188.615 84.1987 189.007 83.746 189.278 83.158H190.804C190.44 84.0913 189.861 84.8147 189.068 85.328C188.274 85.832 187.346 86.084 186.282 86.084C185.376 86.084 184.55 85.874 183.804 85.454C183.066 85.0247 182.483 84.432 182.054 83.676C181.624 82.92 181.41 82.066 181.41 81.114ZM202.192 76.242L199.014 82.318V86H197.74V82.318L194.548 76.242H195.962L198.37 81.184L200.778 76.242H202.192Z" fill="white"/>
</svg>
