<svg width="244" height="92" viewBox="0 0 244 92" fill="none" xmlns="http://www.w3.org/2000/svg">
<path d="M20.5176 37.5C20.5176 34.0667 21.2842 31 22.8176 28.3C24.3842 25.5667 26.5009 23.45 29.1676 21.95C31.8676 20.4167 34.8842 19.65 38.2176 19.65C42.1176 19.65 45.5342 20.65 48.4676 22.65C51.4009 24.65 53.4509 27.4167 54.6176 30.95H46.5676C45.7676 29.2833 44.6342 28.0333 43.1676 27.2C41.7342 26.3667 40.0676 25.95 38.1676 25.95C36.1342 25.95 34.3176 26.4333 32.7176 27.4C31.1509 28.3333 29.9176 29.6667 29.0176 31.4C28.1509 33.1333 27.7176 35.1667 27.7176 37.5C27.7176 39.8 28.1509 41.8333 29.0176 43.6C29.9176 45.3333 31.1509 46.6833 32.7176 47.65C34.3176 48.5833 36.1342 49.05 38.1676 49.05C40.0676 49.05 41.7342 48.6333 43.1676 47.8C44.6342 46.9333 45.7676 45.6667 46.5676 44H54.6176C53.4509 47.5667 51.4009 50.35 48.4676 52.35C45.5676 54.3167 42.1509 55.3 38.2176 55.3C34.8842 55.3 31.8676 54.55 29.1676 53.05C26.5009 51.5167 24.3842 49.4 22.8176 46.7C21.2842 44 20.5176 40.9333 20.5176 37.5ZM77.3465 55L69.6465 41.4H66.3465V55H59.3465V20.1H72.4465C75.1465 20.1 77.4465 20.5833 79.3465 21.55C81.2465 22.4833 82.6632 23.7667 83.5965 25.4C84.5632 27 85.0465 28.8 85.0465 30.8C85.0465 33.1 84.3798 35.1833 83.0465 37.05C81.7132 38.8833 79.7298 40.15 77.0965 40.85L85.4465 55H77.3465ZM66.3465 36.15H72.1965C74.0965 36.15 75.5132 35.7 76.4465 34.8C77.3798 33.8667 77.8465 32.5833 77.8465 30.95C77.8465 29.35 77.3798 28.1167 76.4465 27.25C75.5132 26.35 74.0965 25.9 72.1965 25.9H66.3465V36.15ZM97.1277 25.75V34.5H108.878V40.05H97.1277V49.3H110.378V55H90.1277V20.05H110.378V25.75H97.1277ZM136.889 48.35H122.989L120.689 55H113.339L125.889 20.05H134.039L146.589 55H139.189L136.889 48.35ZM134.989 42.75L129.939 28.15L124.889 42.75H134.989ZM173.78 20.1V25.75H164.48V55H157.48V25.75H148.18V20.1H173.78ZM184.638 20.1V55H177.638V20.1H184.638ZM188.604 37.5C188.604 34.0667 189.37 31 190.904 28.3C192.47 25.5667 194.587 23.45 197.254 21.95C199.954 20.4167 202.97 19.65 206.304 19.65C210.204 19.65 213.62 20.65 216.554 22.65C219.487 24.65 221.537 27.4167 222.704 30.95H214.654C213.854 29.2833 212.72 28.0333 211.254 27.2C209.82 26.3667 208.154 25.95 206.254 25.95C204.22 25.95 202.404 26.4333 200.804 27.4C199.237 28.3333 198.004 29.6667 197.104 31.4C196.237 33.1333 195.804 35.1667 195.804 37.5C195.804 39.8 196.237 41.8333 197.104 43.6C198.004 45.3333 199.237 46.6833 200.804 47.65C202.404 48.5833 204.22 49.05 206.254 49.05C208.154 49.05 209.82 48.6333 211.254 47.8C212.72 46.9333 213.854 45.6667 214.654 44H222.704C221.537 47.5667 219.487 50.35 216.554 52.35C213.654 54.3167 210.237 55.3 206.304 55.3C202.97 55.3 199.954 54.55 197.254 53.05C194.587 51.5167 192.47 49.4 190.904 46.7C189.37 44 188.604 40.9333 188.604 37.5Z" fill="#6D95FC"/>
<path d="M42.1441 79.114C42.1441 78.162 42.3588 77.308 42.7881 76.552C43.2174 75.7867 43.8008 75.1893 44.5381 74.76C45.2848 74.3307 46.1108 74.116 47.0161 74.116C48.0801 74.116 49.0088 74.3727 49.8021 74.886C50.5954 75.3993 51.1741 76.1273 51.5381 77.07H50.0121C49.7414 76.482 49.3494 76.0293 48.8361 75.712C48.3321 75.3947 47.7254 75.236 47.0161 75.236C46.3348 75.236 45.7234 75.3947 45.1821 75.712C44.6408 76.0293 44.2161 76.482 43.9081 77.07C43.6001 77.6487 43.4461 78.33 43.4461 79.114C43.4461 79.8887 43.6001 80.57 43.9081 81.158C44.2161 81.7367 44.6408 82.1847 45.1821 82.502C45.7234 82.8193 46.3348 82.978 47.0161 82.978C47.7254 82.978 48.3321 82.824 48.8361 82.516C49.3494 82.1987 49.7414 81.746 50.0121 81.158H51.5381C51.1741 82.0913 50.5954 82.8147 49.8021 83.328C49.0088 83.832 48.0801 84.084 47.0161 84.084C46.1108 84.084 45.2848 83.874 44.5381 83.454C43.8008 83.0247 43.2174 82.432 42.7881 81.676C42.3588 80.92 42.1441 80.066 42.1441 79.114ZM61.2326 84L58.9086 80.01H57.3686V84H56.0946V74.242H59.2446C59.9819 74.242 60.6026 74.368 61.1066 74.62C61.6199 74.872 62.0026 75.2127 62.2546 75.642C62.5066 76.0713 62.6326 76.5613 62.6326 77.112C62.6326 77.784 62.4366 78.3767 62.0446 78.89C61.6619 79.4033 61.0832 79.744 60.3086 79.912L62.7586 84H61.2326ZM57.3686 78.988H59.2446C59.9352 78.988 60.4532 78.82 60.7986 78.484C61.1439 78.1387 61.3166 77.6813 61.3166 77.112C61.3166 76.5333 61.1439 76.0853 60.7986 75.768C60.4626 75.4507 59.9446 75.292 59.2446 75.292H57.3686V78.988ZM68.5461 75.278V78.54H72.1021V79.59H68.5461V82.95H72.5221V84H67.2721V74.228H72.5221V75.278H68.5461ZM82.8779 81.83H78.6219L77.8379 84H76.4939L80.0219 74.298H81.4919L85.0059 84H83.6619L82.8779 81.83ZM82.5139 80.794L80.7499 75.866L78.9859 80.794H82.5139ZM95.2095 74.242V75.278H92.5495V84H91.2755V75.278H88.6015V74.242H95.2095ZM100.712 74.242V84H99.4377V74.242H100.712ZM113.607 74.242L109.925 84H108.455L104.773 74.242H106.131L109.197 82.656L112.263 74.242H113.607ZM118.938 75.278V78.54H122.494V79.59H118.938V82.95H122.914V84H117.664V74.228H122.914V75.278H118.938ZM139.662 81.83H135.406L134.622 84H133.278L136.806 74.298H138.276L141.79 84H140.446L139.662 81.83ZM139.298 80.794L137.534 75.866L135.77 80.794H139.298ZM153.38 77.07C153.109 76.5007 152.717 76.062 152.204 75.754C151.69 75.4367 151.093 75.278 150.412 75.278C149.73 75.278 149.114 75.4367 148.564 75.754C148.022 76.062 147.593 76.51 147.276 77.098C146.968 77.6767 146.814 78.3487 146.814 79.114C146.814 79.8793 146.968 80.5513 147.276 81.13C147.593 81.7087 148.022 82.1567 148.564 82.474C149.114 82.782 149.73 82.936 150.412 82.936C151.364 82.936 152.148 82.6513 152.764 82.082C153.38 81.5127 153.739 80.7427 153.842 79.772H149.95V78.736H155.2V79.716C155.125 80.5187 154.873 81.256 154.444 81.928C154.014 82.5907 153.45 83.118 152.75 83.51C152.05 83.8927 151.27 84.084 150.412 84.084C149.506 84.084 148.68 83.874 147.934 83.454C147.187 83.0247 146.594 82.432 146.156 81.676C145.726 80.92 145.512 80.066 145.512 79.114C145.512 78.162 145.726 77.308 146.156 76.552C146.594 75.7867 147.187 75.194 147.934 74.774C148.68 74.3447 149.506 74.13 150.412 74.13C151.448 74.13 152.362 74.3867 153.156 74.9C153.958 75.4133 154.542 76.1367 154.906 77.07H153.38ZM160.818 75.278V78.54H164.374V79.59H160.818V82.95H164.794V84H159.544V74.228H164.794V75.278H160.818ZM177.054 84H175.78L170.656 76.23V84H169.382V74.228H170.656L175.78 81.984V74.228H177.054V84ZM181.41 79.114C181.41 78.162 181.624 77.308 182.054 76.552C182.483 75.7867 183.066 75.1893 183.804 74.76C184.55 74.3307 185.376 74.116 186.282 74.116C187.346 74.116 188.274 74.3727 189.068 74.886C189.861 75.3993 190.44 76.1273 190.804 77.07H189.278C189.007 76.482 188.615 76.0293 188.102 75.712C187.598 75.3947 186.991 75.236 186.282 75.236C185.6 75.236 184.989 75.3947 184.448 75.712C183.906 76.0293 183.482 76.482 183.174 77.07C182.866 77.6487 182.712 78.33 182.712 79.114C182.712 79.8887 182.866 80.57 183.174 81.158C183.482 81.7367 183.906 82.1847 184.448 82.502C184.989 82.8193 185.6 82.978 186.282 82.978C186.991 82.978 187.598 82.824 188.102 82.516C188.615 82.1987 189.007 81.746 189.278 81.158H190.804C190.44 82.0913 189.861 82.8147 189.068 83.328C188.274 83.832 187.346 84.084 186.282 84.084C185.376 84.084 184.55 83.874 183.804 83.454C183.066 83.0247 182.483 82.432 182.054 81.676C181.624 80.92 181.41 80.066 181.41 79.114ZM202.192 74.242L199.014 80.318V84H197.74V80.318L194.548 74.242H195.962L198.37 79.184L200.778 74.242H202.192Z" fill="white"/>
</svg>
